M48
; DRILL file {KiCad 8.0.5} date 2024-11-08T16:32:13+0200
; FORMAT={-:-/ absolute / metric / decimal}
; #@! TF.CreationDate,2024-11-08T16:32:13+02:00
; #@! TF.GenerationSoftware,Kicad,Pcbnew,8.0.5
; #@! TF.FileFunction,MixedPlating,1,2
FMAT,2
METRIC
; #@! TA.AperFunction,Plated,PTH,ViaDrill
T1C0.300
; #@! TA.AperFunction,Plated,PTH,ComponentDrill
T2C1.000
; #@! TA.AperFunction,NonPlated,NPTH,ComponentDrill
T3C0.900
; #@! TA.AperFunction,NonPlated,NPTH,ComponentDrill
T4C2.200
%
G90
G05
T1
X139.25Y-90.97
X141.98Y-92.77
X143.28Y-91.49
X150.63Y-102.05
X152.31Y-96.54
X153.58Y-102.81
X154.07Y-96.82
X154.11Y-101.78
X155.43Y-97.8
X155.43Y-106.31
X155.86Y-102.56
X156.82Y-91.64
X156.99Y-93.17
X159.67Y-100.3
X160.37Y-96.88
X163.34Y-109.02
X164.59Y-102.24
X164.93Y-97.32
X172.28Y-98.21
X172.32Y-100.2
X177.89Y-98.91
X178.463Y-97.953
X178.66Y-106.41
X179.34Y-102.04
X179.36Y-102.77
X179.44Y-106.4
X179.72Y-99.19
X180.02Y-97.68
X182.88Y-106.11
T2
X141.74Y-84.72
X141.75Y-114.83
X144.28Y-84.72
X144.29Y-114.83
X146.82Y-84.72
X146.83Y-114.83
X149.36Y-84.72
X149.37Y-114.83
X151.9Y-84.72
X151.91Y-114.83
X154.44Y-84.72
X154.45Y-114.83
X156.98Y-84.72
X156.99Y-114.83
X159.52Y-84.72
X159.53Y-114.83
X162.06Y-84.72
X162.07Y-114.83
X164.61Y-114.83
X171.73Y-84.73
X171.73Y-114.98
X174.27Y-84.73
X174.27Y-114.98
X176.81Y-84.73
X176.81Y-114.98
X179.35Y-84.73
X179.35Y-114.98
T3
X135.855Y-91.73
X135.855Y-94.73
T4
X136.48Y-84.88
X136.48Y-114.84
X184.42Y-84.88
X184.42Y-114.84
M30
