M48
; DRILL file {KiCad 8.0.5} date 2024-10-20T15:15:56+0300
; FORMAT={-:-/ absolute / inch / decimal}
; #@! TF.CreationDate,2024-10-20T15:15:56+03:00
; #@! TF.GenerationSoftware,Kicad,Pcbnew,8.0.5
; #@! TF.FileFunction,MixedPlating,1,2
FMAT,2
INCH
; #@! TA.AperFunction,Plated,PTH,ViaDrill
T1C0.0118
; #@! TA.AperFunction,Plated,PTH,ComponentDrill
T2C0.0394
; #@! TA.AperFunction,NonPlated,NPTH,ComponentDrill
T3C0.0354
; #@! TA.AperFunction,NonPlated,NPTH,ComponentDrill
T4C0.0866
%
G90
G05
T1
X5.4823Y-3.5815
X5.5898Y-3.6524
X5.6409Y-3.602
X5.9303Y-4.0177
X5.9965Y-3.8008
X6.0465Y-4.0476
X6.0657Y-3.8118
X6.0673Y-4.0071
X6.1193Y-3.8504
X6.1193Y-4.1854
X6.1362Y-4.0378
X6.174Y-3.6079
X6.1807Y-3.6681
X6.2862Y-3.9488
X6.3138Y-3.8142
X6.4307Y-4.2921
X6.4799Y-4.0252
X6.4933Y-3.8315
X6.7642Y-3.9083
X6.7646Y-3.9693
X6.9858Y-3.9059
X7.0339Y-4.1894
X7.0606Y-4.0173
X7.0614Y-4.0461
X7.0646Y-4.189
X7.0874Y-3.8457
X7.2Y-4.1776
T2
X5.5803Y-3.3354
X5.5807Y-4.5209
X5.6803Y-3.3354
X5.6807Y-4.5209
X5.7803Y-3.3354
X5.7807Y-4.5209
X5.8803Y-3.3354
X5.8807Y-4.5209
X5.9803Y-3.3354
X5.9807Y-4.5209
X6.0803Y-3.3354
X6.0807Y-4.5209
X6.1803Y-3.3354
X6.1807Y-4.5209
X6.2803Y-3.3354
X6.2807Y-4.5209
X6.3803Y-3.3354
X6.3807Y-4.5209
X6.4807Y-4.5209
X6.761Y-3.3358
X6.761Y-4.5268
X6.861Y-3.3358
X6.861Y-4.5268
X6.961Y-3.3358
X6.961Y-4.5268
X7.061Y-3.3358
X7.061Y-4.5268
T3
X5.3486Y-3.6114
X5.3486Y-3.7295
T4
X5.3732Y-3.3417
X5.3732Y-4.5213
X7.2606Y-3.3417
X7.2606Y-4.5213
M30
