%TF.GenerationSoftware,KiCad,Pcbnew,8.0.5*%
%TF.CreationDate,2024-11-08T16:32:20+02:00*%
%TF.ProjectId,FirstTrace,46697273-7454-4726-9163-652e6b696361,1.0*%
%TF.SameCoordinates,Original*%
%TF.FileFunction,Legend,Bot*%
%TF.FilePolarity,Positive*%
%FSLAX46Y46*%
G04 Gerber Fmt 4.6, Leading zero omitted, Abs format (unit mm)*
G04 Created by KiCad (PCBNEW 8.0.5) date 2024-11-08 16:32:20*
%MOMM*%
%LPD*%
G01*
G04 APERTURE LIST*
%ADD10C,0.175000*%
G04 APERTURE END LIST*
D10*
X184968293Y-102090583D02*
X184434959Y-101900107D01*
X184434959Y-101900107D02*
X184968293Y-101709630D01*
X184473055Y-101100106D02*
X184434959Y-101176297D01*
X184434959Y-101176297D02*
X184434959Y-101328678D01*
X184434959Y-101328678D02*
X184473055Y-101404868D01*
X184473055Y-101404868D02*
X184549245Y-101442964D01*
X184549245Y-101442964D02*
X184854007Y-101442964D01*
X184854007Y-101442964D02*
X184930197Y-101404868D01*
X184930197Y-101404868D02*
X184968293Y-101328678D01*
X184968293Y-101328678D02*
X184968293Y-101176297D01*
X184968293Y-101176297D02*
X184930197Y-101100106D01*
X184930197Y-101100106D02*
X184854007Y-101062011D01*
X184854007Y-101062011D02*
X184777816Y-101062011D01*
X184777816Y-101062011D02*
X184701626Y-101442964D01*
X184434959Y-100719154D02*
X184968293Y-100719154D01*
X184815912Y-100719154D02*
X184892102Y-100681059D01*
X184892102Y-100681059D02*
X184930197Y-100642964D01*
X184930197Y-100642964D02*
X184968293Y-100566773D01*
X184968293Y-100566773D02*
X184968293Y-100490583D01*
X184473055Y-100262012D02*
X184434959Y-100185821D01*
X184434959Y-100185821D02*
X184434959Y-100033440D01*
X184434959Y-100033440D02*
X184473055Y-99957250D01*
X184473055Y-99957250D02*
X184549245Y-99919154D01*
X184549245Y-99919154D02*
X184587340Y-99919154D01*
X184587340Y-99919154D02*
X184663531Y-99957250D01*
X184663531Y-99957250D02*
X184701626Y-100033440D01*
X184701626Y-100033440D02*
X184701626Y-100147726D01*
X184701626Y-100147726D02*
X184739721Y-100223916D01*
X184739721Y-100223916D02*
X184815912Y-100262012D01*
X184815912Y-100262012D02*
X184854007Y-100262012D01*
X184854007Y-100262012D02*
X184930197Y-100223916D01*
X184930197Y-100223916D02*
X184968293Y-100147726D01*
X184968293Y-100147726D02*
X184968293Y-100033440D01*
X184968293Y-100033440D02*
X184930197Y-99957250D01*
X184434959Y-99576297D02*
X184968293Y-99576297D01*
X185234959Y-99576297D02*
X185196864Y-99614393D01*
X185196864Y-99614393D02*
X185158769Y-99576297D01*
X185158769Y-99576297D02*
X185196864Y-99538202D01*
X185196864Y-99538202D02*
X185234959Y-99576297D01*
X185234959Y-99576297D02*
X185158769Y-99576297D01*
X184434959Y-99081060D02*
X184473055Y-99157250D01*
X184473055Y-99157250D02*
X184511150Y-99195345D01*
X184511150Y-99195345D02*
X184587340Y-99233441D01*
X184587340Y-99233441D02*
X184815912Y-99233441D01*
X184815912Y-99233441D02*
X184892102Y-99195345D01*
X184892102Y-99195345D02*
X184930197Y-99157250D01*
X184930197Y-99157250D02*
X184968293Y-99081060D01*
X184968293Y-99081060D02*
X184968293Y-98966774D01*
X184968293Y-98966774D02*
X184930197Y-98890583D01*
X184930197Y-98890583D02*
X184892102Y-98852488D01*
X184892102Y-98852488D02*
X184815912Y-98814393D01*
X184815912Y-98814393D02*
X184587340Y-98814393D01*
X184587340Y-98814393D02*
X184511150Y-98852488D01*
X184511150Y-98852488D02*
X184473055Y-98890583D01*
X184473055Y-98890583D02*
X184434959Y-98966774D01*
X184434959Y-98966774D02*
X184434959Y-99081060D01*
X184968293Y-98471535D02*
X184434959Y-98471535D01*
X184892102Y-98471535D02*
X184930197Y-98433440D01*
X184930197Y-98433440D02*
X184968293Y-98357250D01*
X184968293Y-98357250D02*
X184968293Y-98242964D01*
X184968293Y-98242964D02*
X184930197Y-98166773D01*
X184930197Y-98166773D02*
X184854007Y-98128678D01*
X184854007Y-98128678D02*
X184434959Y-98128678D01*
X184434959Y-96719154D02*
X184434959Y-97176297D01*
X184434959Y-96947725D02*
X185234959Y-96947725D01*
X185234959Y-96947725D02*
X185120674Y-97023916D01*
X185120674Y-97023916D02*
X185044483Y-97100106D01*
X185044483Y-97100106D02*
X185006388Y-97176297D01*
X184511150Y-96376296D02*
X184473055Y-96338201D01*
X184473055Y-96338201D02*
X184434959Y-96376296D01*
X184434959Y-96376296D02*
X184473055Y-96414392D01*
X184473055Y-96414392D02*
X184511150Y-96376296D01*
X184511150Y-96376296D02*
X184434959Y-96376296D01*
X185234959Y-95842963D02*
X185234959Y-95766773D01*
X185234959Y-95766773D02*
X185196864Y-95690582D01*
X185196864Y-95690582D02*
X185158769Y-95652487D01*
X185158769Y-95652487D02*
X185082578Y-95614392D01*
X185082578Y-95614392D02*
X184930197Y-95576297D01*
X184930197Y-95576297D02*
X184739721Y-95576297D01*
X184739721Y-95576297D02*
X184587340Y-95614392D01*
X184587340Y-95614392D02*
X184511150Y-95652487D01*
X184511150Y-95652487D02*
X184473055Y-95690582D01*
X184473055Y-95690582D02*
X184434959Y-95766773D01*
X184434959Y-95766773D02*
X184434959Y-95842963D01*
X184434959Y-95842963D02*
X184473055Y-95919154D01*
X184473055Y-95919154D02*
X184511150Y-95957249D01*
X184511150Y-95957249D02*
X184587340Y-95995344D01*
X184587340Y-95995344D02*
X184739721Y-96033440D01*
X184739721Y-96033440D02*
X184930197Y-96033440D01*
X184930197Y-96033440D02*
X185082578Y-95995344D01*
X185082578Y-95995344D02*
X185158769Y-95957249D01*
X185158769Y-95957249D02*
X185196864Y-95919154D01*
X185196864Y-95919154D02*
X185234959Y-95842963D01*
X183147004Y-100376297D02*
X183147004Y-100833440D01*
X183147004Y-100604868D02*
X183947004Y-100604868D01*
X183947004Y-100604868D02*
X183832719Y-100681059D01*
X183832719Y-100681059D02*
X183756528Y-100757249D01*
X183756528Y-100757249D02*
X183718433Y-100833440D01*
X183947004Y-99881058D02*
X183947004Y-99804868D01*
X183947004Y-99804868D02*
X183908909Y-99728677D01*
X183908909Y-99728677D02*
X183870814Y-99690582D01*
X183870814Y-99690582D02*
X183794623Y-99652487D01*
X183794623Y-99652487D02*
X183642242Y-99614392D01*
X183642242Y-99614392D02*
X183451766Y-99614392D01*
X183451766Y-99614392D02*
X183299385Y-99652487D01*
X183299385Y-99652487D02*
X183223195Y-99690582D01*
X183223195Y-99690582D02*
X183185100Y-99728677D01*
X183185100Y-99728677D02*
X183147004Y-99804868D01*
X183147004Y-99804868D02*
X183147004Y-99881058D01*
X183147004Y-99881058D02*
X183185100Y-99957249D01*
X183185100Y-99957249D02*
X183223195Y-99995344D01*
X183223195Y-99995344D02*
X183299385Y-100033439D01*
X183299385Y-100033439D02*
X183451766Y-100071535D01*
X183451766Y-100071535D02*
X183642242Y-100071535D01*
X183642242Y-100071535D02*
X183794623Y-100033439D01*
X183794623Y-100033439D02*
X183870814Y-99995344D01*
X183870814Y-99995344D02*
X183908909Y-99957249D01*
X183908909Y-99957249D02*
X183947004Y-99881058D01*
X183985100Y-98700106D02*
X182956528Y-99385820D01*
X183870814Y-98471535D02*
X183908909Y-98433439D01*
X183908909Y-98433439D02*
X183947004Y-98357249D01*
X183947004Y-98357249D02*
X183947004Y-98166773D01*
X183947004Y-98166773D02*
X183908909Y-98090582D01*
X183908909Y-98090582D02*
X183870814Y-98052487D01*
X183870814Y-98052487D02*
X183794623Y-98014392D01*
X183794623Y-98014392D02*
X183718433Y-98014392D01*
X183718433Y-98014392D02*
X183604147Y-98052487D01*
X183604147Y-98052487D02*
X183147004Y-98509630D01*
X183147004Y-98509630D02*
X183147004Y-98014392D01*
X183680338Y-97328677D02*
X183147004Y-97328677D01*
X183985100Y-97519153D02*
X183413671Y-97709630D01*
X183413671Y-97709630D02*
X183413671Y-97214391D01*
M02*
