%TF.GenerationSoftware,KiCad,Pcbnew,8.0.5*%
%TF.CreationDate,2024-11-08T16:32:20+02:00*%
%TF.ProjectId,FirstTrace,46697273-7454-4726-9163-652e6b696361,1.0*%
%TF.SameCoordinates,Original*%
%TF.FileFunction,Soldermask,Top*%
%TF.FilePolarity,Negative*%
%FSLAX46Y46*%
G04 Gerber Fmt 4.6, Leading zero omitted, Abs format (unit mm)*
G04 Created by KiCad (PCBNEW 8.0.5) date 2024-11-08 16:32:20*
%MOMM*%
%LPD*%
G01*
G04 APERTURE LIST*
G04 Aperture macros list*
%AMRoundRect*
0 Rectangle with rounded corners*
0 $1 Rounding radius*
0 $2 $3 $4 $5 $6 $7 $8 $9 X,Y pos of 4 corners*
0 Add a 4 corners polygon primitive as box body*
4,1,4,$2,$3,$4,$5,$6,$7,$8,$9,$2,$3,0*
0 Add four circle primitives for the rounded corners*
1,1,$1+$1,$2,$3*
1,1,$1+$1,$4,$5*
1,1,$1+$1,$6,$7*
1,1,$1+$1,$8,$9*
0 Add four rect primitives between the rounded corners*
20,1,$1+$1,$2,$3,$4,$5,0*
20,1,$1+$1,$4,$5,$6,$7,0*
20,1,$1+$1,$6,$7,$8,$9,0*
20,1,$1+$1,$8,$9,$2,$3,0*%
G04 Aperture macros list end*
%ADD10RoundRect,0.140000X-0.170000X0.140000X-0.170000X-0.140000X0.170000X-0.140000X0.170000X0.140000X0*%
%ADD11C,2.200000*%
%ADD12R,0.800000X1.000000*%
%ADD13C,0.900000*%
%ADD14R,1.500000X0.700000*%
%ADD15R,1.700000X1.700000*%
%ADD16O,1.700000X1.700000*%
%ADD17RoundRect,0.375000X-0.375000X0.625000X-0.375000X-0.625000X0.375000X-0.625000X0.375000X0.625000X0*%
%ADD18RoundRect,0.500000X-1.400000X0.500000X-1.400000X-0.500000X1.400000X-0.500000X1.400000X0.500000X0*%
%ADD19R,1.200000X1.400000*%
%ADD20RoundRect,0.250000X0.475000X-0.250000X0.475000X0.250000X-0.475000X0.250000X-0.475000X-0.250000X0*%
%ADD21RoundRect,0.135000X-0.185000X0.135000X-0.185000X-0.135000X0.185000X-0.135000X0.185000X0.135000X0*%
%ADD22RoundRect,0.218750X-0.256250X0.218750X-0.256250X-0.218750X0.256250X-0.218750X0.256250X0.218750X0*%
%ADD23RoundRect,0.200000X0.200000X0.275000X-0.200000X0.275000X-0.200000X-0.275000X0.200000X-0.275000X0*%
%ADD24RoundRect,0.140000X0.140000X0.170000X-0.140000X0.170000X-0.140000X-0.170000X0.140000X-0.170000X0*%
%ADD25R,1.380000X0.450000*%
%ADD26R,1.300000X1.650000*%
%ADD27R,1.550000X1.425000*%
%ADD28R,1.900000X1.800000*%
%ADD29R,1.900000X1.000000*%
%ADD30RoundRect,0.075000X-0.662500X-0.075000X0.662500X-0.075000X0.662500X0.075000X-0.662500X0.075000X0*%
%ADD31RoundRect,0.075000X-0.075000X-0.662500X0.075000X-0.662500X0.075000X0.662500X-0.075000X0.662500X0*%
%ADD32RoundRect,0.140000X0.170000X-0.140000X0.170000X0.140000X-0.170000X0.140000X-0.170000X-0.140000X0*%
%ADD33RoundRect,0.140000X-0.140000X-0.170000X0.140000X-0.170000X0.140000X0.170000X-0.140000X0.170000X0*%
%ADD34RoundRect,0.225000X-0.225000X-0.250000X0.225000X-0.250000X0.225000X0.250000X-0.225000X0.250000X0*%
%ADD35RoundRect,0.135000X0.185000X-0.135000X0.185000X0.135000X-0.185000X0.135000X-0.185000X-0.135000X0*%
%ADD36RoundRect,0.250000X-0.250000X-0.475000X0.250000X-0.475000X0.250000X0.475000X-0.250000X0.475000X0*%
%ADD37RoundRect,0.150000X0.512500X0.150000X-0.512500X0.150000X-0.512500X-0.150000X0.512500X-0.150000X0*%
%ADD38RoundRect,0.147500X0.147500X0.172500X-0.147500X0.172500X-0.147500X-0.172500X0.147500X-0.172500X0*%
G04 APERTURE END LIST*
D10*
%TO.C,C1*%
X156580000Y-96840000D03*
X156580000Y-97800000D03*
%TD*%
D11*
%TO.C,H2*%
X184420000Y-84880000D03*
%TD*%
D12*
%TO.C,SW1*%
X136965000Y-89580000D03*
X134755000Y-89580000D03*
D13*
X135855000Y-91730000D03*
X135855000Y-94730000D03*
D12*
X136965000Y-96880000D03*
X134755000Y-96880000D03*
D14*
X137615000Y-90980000D03*
X137615000Y-93980000D03*
X137615000Y-95480000D03*
%TD*%
D15*
%TO.C,J3*%
X162060000Y-84720000D03*
D16*
X159520000Y-84720000D03*
X156980000Y-84720000D03*
X154440000Y-84720000D03*
X151900000Y-84720000D03*
X149360000Y-84720000D03*
X146820000Y-84720000D03*
X144280000Y-84720000D03*
X141740000Y-84720000D03*
%TD*%
D11*
%TO.C,H3*%
X184420000Y-114840000D03*
%TD*%
D17*
%TO.C,U3*%
X178930000Y-104890000D03*
X176630000Y-104890000D03*
D18*
X176630000Y-111190000D03*
D17*
X174330000Y-104890000D03*
%TD*%
D19*
%TO.C,Y1*%
X150600000Y-98210000D03*
X150600000Y-100410000D03*
X152300000Y-100410000D03*
X152300000Y-98210000D03*
%TD*%
D20*
%TO.C,C13*%
X181350000Y-108000000D03*
X181350000Y-106100000D03*
%TD*%
D11*
%TO.C,H1*%
X136480000Y-84880000D03*
%TD*%
D21*
%TO.C,R2*%
X171260000Y-97200000D03*
X171260000Y-98220000D03*
%TD*%
D22*
%TO.C,FB1*%
X157790000Y-103672500D03*
X157790000Y-105247500D03*
%TD*%
D23*
%TO.C,R3*%
X166300000Y-109030000D03*
X164650000Y-109030000D03*
%TD*%
D24*
%TO.C,C10*%
X156400000Y-103670000D03*
X155440000Y-103670000D03*
%TD*%
D22*
%TO.C,D1*%
X167870000Y-109050000D03*
X167870000Y-110625000D03*
%TD*%
D25*
%TO.C,J1*%
X181805000Y-100302500D03*
X181805000Y-99652500D03*
X181805000Y-99002500D03*
X181805000Y-98352500D03*
X181805000Y-97702500D03*
D26*
X184465000Y-102377500D03*
D27*
X181890000Y-101490000D03*
D28*
X184465000Y-100152500D03*
D29*
X184465000Y-97452500D03*
D27*
X181890000Y-96515000D03*
D26*
X184465000Y-95627500D03*
%TD*%
D30*
%TO.C,U1*%
X158197500Y-96810000D03*
X158197500Y-97310000D03*
X158197500Y-97810000D03*
X158197500Y-98310000D03*
X158197500Y-98810000D03*
X158197500Y-99310000D03*
X158197500Y-99810000D03*
X158197500Y-100310000D03*
X158197500Y-100810000D03*
X158197500Y-101310000D03*
X158197500Y-101810000D03*
X158197500Y-102310000D03*
D31*
X159610000Y-103722500D03*
X160110000Y-103722500D03*
X160610000Y-103722500D03*
X161110000Y-103722500D03*
X161610000Y-103722500D03*
X162110000Y-103722500D03*
X162610000Y-103722500D03*
X163110000Y-103722500D03*
X163610000Y-103722500D03*
X164110000Y-103722500D03*
X164610000Y-103722500D03*
X165110000Y-103722500D03*
D30*
X166522500Y-102310000D03*
X166522500Y-101810000D03*
X166522500Y-101310000D03*
X166522500Y-100810000D03*
X166522500Y-100310000D03*
X166522500Y-99810000D03*
X166522500Y-99310000D03*
X166522500Y-98810000D03*
X166522500Y-98310000D03*
X166522500Y-97810000D03*
X166522500Y-97310000D03*
X166522500Y-96810000D03*
D31*
X165110000Y-95397500D03*
X164610000Y-95397500D03*
X164110000Y-95397500D03*
X163610000Y-95397500D03*
X163110000Y-95397500D03*
X162610000Y-95397500D03*
X162110000Y-95397500D03*
X161610000Y-95397500D03*
X161110000Y-95397500D03*
X160610000Y-95397500D03*
X160110000Y-95397500D03*
X159610000Y-95397500D03*
%TD*%
D24*
%TO.C,C11*%
X156400000Y-105240000D03*
X155440000Y-105240000D03*
%TD*%
D15*
%TO.C,J4*%
X179350000Y-114980000D03*
D16*
X176810000Y-114980000D03*
X174270000Y-114980000D03*
X171730000Y-114980000D03*
%TD*%
D32*
%TO.C,C7*%
X154080000Y-98850000D03*
X154080000Y-97890000D03*
%TD*%
D10*
%TO.C,C3*%
X168120000Y-96370000D03*
X168120000Y-97330000D03*
%TD*%
D11*
%TO.C,H4*%
X136480000Y-114840000D03*
%TD*%
D33*
%TO.C,C4*%
X159160000Y-93800000D03*
X160120000Y-93800000D03*
%TD*%
D34*
%TO.C,C5*%
X158560000Y-92430000D03*
X160110000Y-92430000D03*
%TD*%
D10*
%TO.C,C8*%
X154110000Y-99800000D03*
X154110000Y-100760000D03*
%TD*%
D35*
%TO.C,R1*%
X140770000Y-93980000D03*
X140770000Y-92960000D03*
%TD*%
D32*
%TO.C,C9*%
X156610000Y-101560000D03*
X156610000Y-100600000D03*
%TD*%
D36*
%TO.C,C12*%
X176190000Y-102410000D03*
X178090000Y-102410000D03*
%TD*%
D15*
%TO.C,J2*%
X179350000Y-84730000D03*
D16*
X176810000Y-84730000D03*
X174270000Y-84730000D03*
X171730000Y-84730000D03*
%TD*%
D10*
%TO.C,C6*%
X155380000Y-100580000D03*
X155380000Y-101540000D03*
%TD*%
D37*
%TO.C,U2*%
X176467500Y-99852500D03*
X176467500Y-98902500D03*
X176467500Y-97952500D03*
X174192500Y-97952500D03*
X174192500Y-98902500D03*
X174192500Y-99852500D03*
%TD*%
D38*
%TO.C,F1*%
X180010000Y-100490000D03*
X179040000Y-100490000D03*
%TD*%
D15*
%TO.C,J5*%
X164610000Y-114830000D03*
D16*
X162070000Y-114830000D03*
X159530000Y-114830000D03*
X156990000Y-114830000D03*
X154450000Y-114830000D03*
X151910000Y-114830000D03*
X149370000Y-114830000D03*
X146830000Y-114830000D03*
X144290000Y-114830000D03*
X141750000Y-114830000D03*
%TD*%
D24*
%TO.C,C2*%
X165800000Y-105260000D03*
X164840000Y-105260000D03*
%TD*%
M02*
