%TF.GenerationSoftware,KiCad,Pcbnew,8.0.5*%
%TF.CreationDate,2024-10-22T14:41:14+03:00*%
%TF.ProjectId,FirstTrace,46697273-7454-4726-9163-652e6b696361,rev?*%
%TF.SameCoordinates,Original*%
%TF.FileFunction,Copper,L2,Bot*%
%TF.FilePolarity,Positive*%
%FSLAX46Y46*%
G04 Gerber Fmt 4.6, Leading zero omitted, Abs format (unit mm)*
G04 Created by KiCad (PCBNEW 8.0.5) date 2024-10-22 14:41:14*
%MOMM*%
%LPD*%
G01*
G04 APERTURE LIST*
%TA.AperFunction,ComponentPad*%
%ADD10R,1.700000X1.700000*%
%TD*%
%TA.AperFunction,ComponentPad*%
%ADD11O,1.700000X1.700000*%
%TD*%
%TA.AperFunction,ViaPad*%
%ADD12C,0.700000*%
%TD*%
%TA.AperFunction,Conductor*%
%ADD13C,0.200000*%
%TD*%
G04 APERTURE END LIST*
D10*
%TO.P,J3,1,Pin_1*%
%TO.N,+3.3V*%
X162060000Y-84720000D03*
D11*
%TO.P,J3,2,Pin_2*%
%TO.N,GND*%
X159520000Y-84720000D03*
%TO.P,J3,3,Pin_3*%
%TO.N,PB3*%
X156980000Y-84720000D03*
%TO.P,J3,4,Pin_4*%
%TO.N,PB4*%
X154440000Y-84720000D03*
%TO.P,J3,5,Pin_5*%
%TO.N,PB5*%
X151900000Y-84720000D03*
%TO.P,J3,6,Pin_6*%
%TO.N,PB6*%
X149360000Y-84720000D03*
%TO.P,J3,7,Pin_7*%
%TO.N,PB7*%
X146820000Y-84720000D03*
%TO.P,J3,8,Pin_8*%
%TO.N,PB8*%
X144280000Y-84720000D03*
%TO.P,J3,9,Pin_9*%
%TO.N,PB9*%
X141740000Y-84720000D03*
%TD*%
D10*
%TO.P,J4,1,Pin_1*%
%TO.N,+3.3V*%
X179350000Y-114980000D03*
D11*
%TO.P,J4,2,Pin_2*%
%TO.N,GND*%
X176810000Y-114980000D03*
%TO.P,J4,3,Pin_3*%
%TO.N,PB11*%
X174270000Y-114980000D03*
%TO.P,J4,4,Pin_4*%
%TO.N,PB10*%
X171730000Y-114980000D03*
%TD*%
D10*
%TO.P,J2,1,Pin_1*%
%TO.N,+3.3V*%
X179350000Y-84730000D03*
D11*
%TO.P,J2,2,Pin_2*%
%TO.N,GND*%
X176810000Y-84730000D03*
%TO.P,J2,3,Pin_3*%
%TO.N,SWDIO*%
X174270000Y-84730000D03*
%TO.P,J2,4,Pin_4*%
%TO.N,SWCLK*%
X171730000Y-84730000D03*
%TD*%
D10*
%TO.P,J5,1,Pin_1*%
%TO.N,+3.3V*%
X164610000Y-114830000D03*
D11*
%TO.P,J5,2,Pin_2*%
%TO.N,GND*%
X162070000Y-114830000D03*
%TO.P,J5,3,Pin_3*%
%TO.N,PB2*%
X159530000Y-114830000D03*
%TO.P,J5,4,Pin_4*%
%TO.N,PB1*%
X156990000Y-114830000D03*
%TO.P,J5,5,Pin_5*%
%TO.N,PB0*%
X154450000Y-114830000D03*
%TO.P,J5,6,Pin_6*%
%TO.N,PA7*%
X151910000Y-114830000D03*
%TO.P,J5,7,Pin_7*%
%TO.N,PA6*%
X149370000Y-114830000D03*
%TO.P,J5,8,Pin_8*%
%TO.N,PA5*%
X146830000Y-114830000D03*
%TO.P,J5,9,Pin_9*%
%TO.N,PA4*%
X144290000Y-114830000D03*
%TO.P,J5,10,Pin_10*%
%TO.N,PA3*%
X141750000Y-114830000D03*
%TD*%
D12*
%TO.N,GND*%
X179440000Y-106400000D03*
X179360000Y-102770000D03*
X180020000Y-97680000D03*
X153580000Y-102810000D03*
X179340000Y-102040000D03*
X163340000Y-109020000D03*
X152310000Y-96540000D03*
X164930000Y-97320000D03*
X177440380Y-99209620D03*
X154110000Y-101780000D03*
X155430000Y-97800000D03*
X164590000Y-102240000D03*
X150630000Y-102050000D03*
X139250000Y-90970000D03*
X178660000Y-106410000D03*
X182880000Y-106110000D03*
X155430000Y-106310000D03*
X159670000Y-100300000D03*
X160370000Y-96880000D03*
X155860000Y-102560000D03*
X154070000Y-96820000D03*
%TO.N,/BOOT0*%
X141980000Y-92770000D03*
X156820000Y-91640000D03*
X156990000Y-93170000D03*
X143280000Y-91490000D03*
%TO.N,+5V*%
X171810000Y-99270000D03*
X171820000Y-100820000D03*
%TD*%
D13*
%TO.N,/BOOT0*%
X143260000Y-91490000D02*
X141980000Y-92770000D01*
X156820000Y-91640000D02*
X156820000Y-93000000D01*
X156820000Y-93000000D02*
X156990000Y-93170000D01*
X143280000Y-91490000D02*
X143260000Y-91490000D01*
%TO.N,+5V*%
X171820000Y-99280000D02*
X171810000Y-99270000D01*
X171820000Y-100820000D02*
X171820000Y-99280000D01*
%TD*%
%TA.AperFunction,Conductor*%
%TO.N,GND*%
G36*
X184423736Y-82380726D02*
G01*
X184713796Y-82398271D01*
X184728659Y-82400076D01*
X185010798Y-82451780D01*
X185025335Y-82455363D01*
X185299172Y-82540695D01*
X185313163Y-82546000D01*
X185574743Y-82663727D01*
X185587989Y-82670680D01*
X185833465Y-82819075D01*
X185845776Y-82827573D01*
X186071573Y-83004473D01*
X186082781Y-83014403D01*
X186285596Y-83217218D01*
X186295526Y-83228426D01*
X186466428Y-83446567D01*
X186472422Y-83454217D01*
X186480926Y-83466537D01*
X186616924Y-83691505D01*
X186629316Y-83712004D01*
X186636275Y-83725263D01*
X186753997Y-83986831D01*
X186759306Y-84000832D01*
X186844635Y-84274663D01*
X186848219Y-84289201D01*
X186899923Y-84571340D01*
X186901728Y-84586205D01*
X186919274Y-84876263D01*
X186919500Y-84883750D01*
X186919500Y-114836249D01*
X186919274Y-114843736D01*
X186901728Y-115133794D01*
X186899923Y-115148659D01*
X186848219Y-115430798D01*
X186844635Y-115445336D01*
X186759306Y-115719167D01*
X186753997Y-115733168D01*
X186636275Y-115994736D01*
X186629316Y-116007995D01*
X186480928Y-116253459D01*
X186472422Y-116265782D01*
X186295526Y-116491573D01*
X186285596Y-116502781D01*
X186082781Y-116705596D01*
X186071573Y-116715526D01*
X185845782Y-116892422D01*
X185833459Y-116900928D01*
X185587995Y-117049316D01*
X185574736Y-117056275D01*
X185313168Y-117173997D01*
X185299167Y-117179306D01*
X185025336Y-117264635D01*
X185010798Y-117268219D01*
X184728659Y-117319923D01*
X184713794Y-117321728D01*
X184423736Y-117339274D01*
X184416249Y-117339500D01*
X136483751Y-117339500D01*
X136476264Y-117339274D01*
X136186205Y-117321728D01*
X136171340Y-117319923D01*
X135889201Y-117268219D01*
X135874663Y-117264635D01*
X135600832Y-117179306D01*
X135586831Y-117173997D01*
X135325263Y-117056275D01*
X135312004Y-117049316D01*
X135066540Y-116900928D01*
X135054217Y-116892422D01*
X134828426Y-116715526D01*
X134817218Y-116705596D01*
X134614403Y-116502781D01*
X134604473Y-116491573D01*
X134427573Y-116265776D01*
X134419075Y-116253465D01*
X134270680Y-116007989D01*
X134263727Y-115994743D01*
X134146000Y-115733163D01*
X134140693Y-115719167D01*
X134135157Y-115701402D01*
X134055363Y-115445335D01*
X134051780Y-115430798D01*
X134025429Y-115287007D01*
X134000075Y-115148657D01*
X133998271Y-115133794D01*
X133994134Y-115065408D01*
X133980726Y-114843736D01*
X133980500Y-114836249D01*
X133980500Y-114733713D01*
X135129500Y-114733713D01*
X135129500Y-114946287D01*
X135134840Y-114980000D01*
X135161552Y-115148659D01*
X135162754Y-115156243D01*
X135219211Y-115330000D01*
X135228444Y-115358414D01*
X135324951Y-115547820D01*
X135449890Y-115719786D01*
X135600213Y-115870109D01*
X135772179Y-115995048D01*
X135772181Y-115995049D01*
X135772184Y-115995051D01*
X135961588Y-116091557D01*
X136163757Y-116157246D01*
X136373713Y-116190500D01*
X136373714Y-116190500D01*
X136586286Y-116190500D01*
X136586287Y-116190500D01*
X136796243Y-116157246D01*
X136998412Y-116091557D01*
X137187816Y-115995051D01*
X137267052Y-115937483D01*
X137359786Y-115870109D01*
X137359788Y-115870106D01*
X137359792Y-115870104D01*
X137510104Y-115719792D01*
X137510106Y-115719788D01*
X137510109Y-115719786D01*
X137635048Y-115547820D01*
X137635047Y-115547820D01*
X137635051Y-115547816D01*
X137731557Y-115358412D01*
X137797246Y-115156243D01*
X137830500Y-114946287D01*
X137830500Y-114829999D01*
X140394341Y-114829999D01*
X140394341Y-114830000D01*
X140414936Y-115065403D01*
X140414938Y-115065413D01*
X140476094Y-115293655D01*
X140476096Y-115293659D01*
X140476097Y-115293663D01*
X140556004Y-115465023D01*
X140575965Y-115507830D01*
X140575967Y-115507834D01*
X140603966Y-115547820D01*
X140711505Y-115701401D01*
X140878599Y-115868495D01*
X140975384Y-115936265D01*
X141072165Y-116004032D01*
X141072167Y-116004033D01*
X141072170Y-116004035D01*
X141286337Y-116103903D01*
X141514592Y-116165063D01*
X141691034Y-116180500D01*
X141749999Y-116185659D01*
X141750000Y-116185659D01*
X141750001Y-116185659D01*
X141808966Y-116180500D01*
X141985408Y-116165063D01*
X142213663Y-116103903D01*
X142427830Y-116004035D01*
X142621401Y-115868495D01*
X142788495Y-115701401D01*
X142918425Y-115515842D01*
X142973002Y-115472217D01*
X143042500Y-115465023D01*
X143104855Y-115496546D01*
X143121575Y-115515842D01*
X143251500Y-115701395D01*
X143251505Y-115701401D01*
X143418599Y-115868495D01*
X143515384Y-115936265D01*
X143612165Y-116004032D01*
X143612167Y-116004033D01*
X143612170Y-116004035D01*
X143826337Y-116103903D01*
X144054592Y-116165063D01*
X144231034Y-116180500D01*
X144289999Y-116185659D01*
X144290000Y-116185659D01*
X144290001Y-116185659D01*
X144348966Y-116180500D01*
X144525408Y-116165063D01*
X144753663Y-116103903D01*
X144967830Y-116004035D01*
X145161401Y-115868495D01*
X145328495Y-115701401D01*
X145458425Y-115515842D01*
X145513002Y-115472217D01*
X145582500Y-115465023D01*
X145644855Y-115496546D01*
X145661575Y-115515842D01*
X145791500Y-115701395D01*
X145791505Y-115701401D01*
X145958599Y-115868495D01*
X146055384Y-115936265D01*
X146152165Y-116004032D01*
X146152167Y-116004033D01*
X146152170Y-116004035D01*
X146366337Y-116103903D01*
X146594592Y-116165063D01*
X146771034Y-116180500D01*
X146829999Y-116185659D01*
X146830000Y-116185659D01*
X146830001Y-116185659D01*
X146888966Y-116180500D01*
X147065408Y-116165063D01*
X147293663Y-116103903D01*
X147507830Y-116004035D01*
X147701401Y-115868495D01*
X147868495Y-115701401D01*
X147998425Y-115515842D01*
X148053002Y-115472217D01*
X148122500Y-115465023D01*
X148184855Y-115496546D01*
X148201575Y-115515842D01*
X148331500Y-115701395D01*
X148331505Y-115701401D01*
X148498599Y-115868495D01*
X148595384Y-115936265D01*
X148692165Y-116004032D01*
X148692167Y-116004033D01*
X148692170Y-116004035D01*
X148906337Y-116103903D01*
X149134592Y-116165063D01*
X149311034Y-116180500D01*
X149369999Y-116185659D01*
X149370000Y-116185659D01*
X149370001Y-116185659D01*
X149428966Y-116180500D01*
X149605408Y-116165063D01*
X149833663Y-116103903D01*
X150047830Y-116004035D01*
X150241401Y-115868495D01*
X150408495Y-115701401D01*
X150538425Y-115515842D01*
X150593002Y-115472217D01*
X150662500Y-115465023D01*
X150724855Y-115496546D01*
X150741575Y-115515842D01*
X150871500Y-115701395D01*
X150871505Y-115701401D01*
X151038599Y-115868495D01*
X151135384Y-115936265D01*
X151232165Y-116004032D01*
X151232167Y-116004033D01*
X151232170Y-116004035D01*
X151446337Y-116103903D01*
X151674592Y-116165063D01*
X151851034Y-116180500D01*
X151909999Y-116185659D01*
X151910000Y-116185659D01*
X151910001Y-116185659D01*
X151968966Y-116180500D01*
X152145408Y-116165063D01*
X152373663Y-116103903D01*
X152587830Y-116004035D01*
X152781401Y-115868495D01*
X152948495Y-115701401D01*
X153078425Y-115515842D01*
X153133002Y-115472217D01*
X153202500Y-115465023D01*
X153264855Y-115496546D01*
X153281575Y-115515842D01*
X153411500Y-115701395D01*
X153411505Y-115701401D01*
X153578599Y-115868495D01*
X153675384Y-115936265D01*
X153772165Y-116004032D01*
X153772167Y-116004033D01*
X153772170Y-116004035D01*
X153986337Y-116103903D01*
X154214592Y-116165063D01*
X154391034Y-116180500D01*
X154449999Y-116185659D01*
X154450000Y-116185659D01*
X154450001Y-116185659D01*
X154508966Y-116180500D01*
X154685408Y-116165063D01*
X154913663Y-116103903D01*
X155127830Y-116004035D01*
X155321401Y-115868495D01*
X155488495Y-115701401D01*
X155618425Y-115515842D01*
X155673002Y-115472217D01*
X155742500Y-115465023D01*
X155804855Y-115496546D01*
X155821575Y-115515842D01*
X155951500Y-115701395D01*
X155951505Y-115701401D01*
X156118599Y-115868495D01*
X156215384Y-115936265D01*
X156312165Y-116004032D01*
X156312167Y-116004033D01*
X156312170Y-116004035D01*
X156526337Y-116103903D01*
X156754592Y-116165063D01*
X156931034Y-116180500D01*
X156989999Y-116185659D01*
X156990000Y-116185659D01*
X156990001Y-116185659D01*
X157048966Y-116180500D01*
X157225408Y-116165063D01*
X157453663Y-116103903D01*
X157667830Y-116004035D01*
X157861401Y-115868495D01*
X158028495Y-115701401D01*
X158158425Y-115515842D01*
X158213002Y-115472217D01*
X158282500Y-115465023D01*
X158344855Y-115496546D01*
X158361575Y-115515842D01*
X158491500Y-115701395D01*
X158491505Y-115701401D01*
X158658599Y-115868495D01*
X158755384Y-115936265D01*
X158852165Y-116004032D01*
X158852167Y-116004033D01*
X158852170Y-116004035D01*
X159066337Y-116103903D01*
X159294592Y-116165063D01*
X159471034Y-116180500D01*
X159529999Y-116185659D01*
X159530000Y-116185659D01*
X159530001Y-116185659D01*
X159588966Y-116180500D01*
X159765408Y-116165063D01*
X159993663Y-116103903D01*
X160207830Y-116004035D01*
X160401401Y-115868495D01*
X160568495Y-115701401D01*
X160698730Y-115515405D01*
X160753307Y-115471781D01*
X160822805Y-115464587D01*
X160885160Y-115496110D01*
X160901879Y-115515405D01*
X161031890Y-115701078D01*
X161198917Y-115868105D01*
X161392421Y-116003600D01*
X161606507Y-116103429D01*
X161606516Y-116103433D01*
X161820000Y-116160634D01*
X161820000Y-115263012D01*
X161877007Y-115295925D01*
X162004174Y-115330000D01*
X162135826Y-115330000D01*
X162262993Y-115295925D01*
X162320000Y-115263012D01*
X162320000Y-116160633D01*
X162533483Y-116103433D01*
X162533492Y-116103429D01*
X162747578Y-116003600D01*
X162941078Y-115868108D01*
X163063133Y-115746053D01*
X163124456Y-115712568D01*
X163194148Y-115717552D01*
X163250082Y-115759423D01*
X163266997Y-115790401D01*
X163316202Y-115922328D01*
X163316206Y-115922335D01*
X163402452Y-116037544D01*
X163402455Y-116037547D01*
X163517664Y-116123793D01*
X163517671Y-116123797D01*
X163652517Y-116174091D01*
X163652516Y-116174091D01*
X163659444Y-116174835D01*
X163712127Y-116180500D01*
X165507872Y-116180499D01*
X165567483Y-116174091D01*
X165702331Y-116123796D01*
X165817546Y-116037546D01*
X165903796Y-115922331D01*
X165954091Y-115787483D01*
X165960500Y-115727873D01*
X165960500Y-114979999D01*
X170374341Y-114979999D01*
X170374341Y-114980000D01*
X170394936Y-115215403D01*
X170394938Y-115215413D01*
X170456094Y-115443655D01*
X170456096Y-115443659D01*
X170456097Y-115443663D01*
X170536004Y-115615023D01*
X170555965Y-115657830D01*
X170555967Y-115657834D01*
X170608717Y-115733168D01*
X170691505Y-115851401D01*
X170858599Y-116018495D01*
X170955384Y-116086265D01*
X171052165Y-116154032D01*
X171052167Y-116154033D01*
X171052170Y-116154035D01*
X171266337Y-116253903D01*
X171266343Y-116253904D01*
X171266344Y-116253905D01*
X171321285Y-116268626D01*
X171494592Y-116315063D01*
X171671034Y-116330500D01*
X171729999Y-116335659D01*
X171730000Y-116335659D01*
X171730001Y-116335659D01*
X171788966Y-116330500D01*
X171965408Y-116315063D01*
X172193663Y-116253903D01*
X172407830Y-116154035D01*
X172601401Y-116018495D01*
X172768495Y-115851401D01*
X172898425Y-115665842D01*
X172953002Y-115622217D01*
X173022500Y-115615023D01*
X173084855Y-115646546D01*
X173101575Y-115665842D01*
X173231500Y-115851395D01*
X173231505Y-115851401D01*
X173398599Y-116018495D01*
X173495384Y-116086265D01*
X173592165Y-116154032D01*
X173592167Y-116154033D01*
X173592170Y-116154035D01*
X173806337Y-116253903D01*
X173806343Y-116253904D01*
X173806344Y-116253905D01*
X173861285Y-116268626D01*
X174034592Y-116315063D01*
X174211034Y-116330500D01*
X174269999Y-116335659D01*
X174270000Y-116335659D01*
X174270001Y-116335659D01*
X174328966Y-116330500D01*
X174505408Y-116315063D01*
X174733663Y-116253903D01*
X174947830Y-116154035D01*
X175141401Y-116018495D01*
X175308495Y-115851401D01*
X175438730Y-115665405D01*
X175493307Y-115621781D01*
X175562805Y-115614587D01*
X175625160Y-115646110D01*
X175641879Y-115665405D01*
X175771890Y-115851078D01*
X175938917Y-116018105D01*
X176132421Y-116153600D01*
X176346507Y-116253429D01*
X176346516Y-116253433D01*
X176560000Y-116310634D01*
X176560000Y-115413012D01*
X176617007Y-115445925D01*
X176744174Y-115480000D01*
X176875826Y-115480000D01*
X177002993Y-115445925D01*
X177060000Y-115413012D01*
X177060000Y-116310633D01*
X177273483Y-116253433D01*
X177273492Y-116253429D01*
X177487578Y-116153600D01*
X177681078Y-116018108D01*
X177803133Y-115896053D01*
X177864456Y-115862568D01*
X177934148Y-115867552D01*
X177990082Y-115909423D01*
X178006997Y-115940401D01*
X178056202Y-116072328D01*
X178056206Y-116072335D01*
X178142452Y-116187544D01*
X178142455Y-116187547D01*
X178257664Y-116273793D01*
X178257671Y-116273797D01*
X178392517Y-116324091D01*
X178392516Y-116324091D01*
X178399444Y-116324835D01*
X178452127Y-116330500D01*
X180247872Y-116330499D01*
X180307483Y-116324091D01*
X180442331Y-116273796D01*
X180557546Y-116187546D01*
X180643796Y-116072331D01*
X180694091Y-115937483D01*
X180700500Y-115877873D01*
X180700499Y-114733713D01*
X183069500Y-114733713D01*
X183069500Y-114946287D01*
X183074840Y-114980000D01*
X183101552Y-115148659D01*
X183102754Y-115156243D01*
X183159211Y-115330000D01*
X183168444Y-115358414D01*
X183264951Y-115547820D01*
X183389890Y-115719786D01*
X183540213Y-115870109D01*
X183712179Y-115995048D01*
X183712181Y-115995049D01*
X183712184Y-115995051D01*
X183901588Y-116091557D01*
X184103757Y-116157246D01*
X184313713Y-116190500D01*
X184313714Y-116190500D01*
X184526286Y-116190500D01*
X184526287Y-116190500D01*
X184736243Y-116157246D01*
X184938412Y-116091557D01*
X185127816Y-115995051D01*
X185207052Y-115937483D01*
X185299786Y-115870109D01*
X185299788Y-115870106D01*
X185299792Y-115870104D01*
X185450104Y-115719792D01*
X185450106Y-115719788D01*
X185450109Y-115719786D01*
X185575048Y-115547820D01*
X185575047Y-115547820D01*
X185575051Y-115547816D01*
X185671557Y-115358412D01*
X185737246Y-115156243D01*
X185770500Y-114946287D01*
X185770500Y-114733713D01*
X185737246Y-114523757D01*
X185671557Y-114321588D01*
X185575051Y-114132184D01*
X185575049Y-114132181D01*
X185575048Y-114132179D01*
X185450109Y-113960213D01*
X185299786Y-113809890D01*
X185127820Y-113684951D01*
X184938414Y-113588444D01*
X184938413Y-113588443D01*
X184938412Y-113588443D01*
X184736243Y-113522754D01*
X184736241Y-113522753D01*
X184736240Y-113522753D01*
X184560621Y-113494938D01*
X184526287Y-113489500D01*
X184313713Y-113489500D01*
X184279379Y-113494938D01*
X184103760Y-113522753D01*
X183901585Y-113588444D01*
X183712179Y-113684951D01*
X183540213Y-113809890D01*
X183389890Y-113960213D01*
X183264951Y-114132179D01*
X183168444Y-114321585D01*
X183102753Y-114523760D01*
X183091534Y-114594596D01*
X183069500Y-114733713D01*
X180700499Y-114733713D01*
X180700499Y-114082128D01*
X180694091Y-114022517D01*
X180693002Y-114019598D01*
X180643797Y-113887671D01*
X180643793Y-113887664D01*
X180557547Y-113772455D01*
X180557544Y-113772452D01*
X180442335Y-113686206D01*
X180442328Y-113686202D01*
X180307482Y-113635908D01*
X180307483Y-113635908D01*
X180247883Y-113629501D01*
X180247881Y-113629500D01*
X180247873Y-113629500D01*
X180247864Y-113629500D01*
X178452129Y-113629500D01*
X178452123Y-113629501D01*
X178392516Y-113635908D01*
X178257671Y-113686202D01*
X178257664Y-113686206D01*
X178142455Y-113772452D01*
X178142452Y-113772455D01*
X178056206Y-113887664D01*
X178056202Y-113887671D01*
X178006997Y-114019598D01*
X177965126Y-114075532D01*
X177899661Y-114099949D01*
X177831388Y-114085097D01*
X177803134Y-114063946D01*
X177681082Y-113941894D01*
X177487578Y-113806399D01*
X177273492Y-113706570D01*
X177273486Y-113706567D01*
X177060000Y-113649364D01*
X177060000Y-114546988D01*
X177002993Y-114514075D01*
X176875826Y-114480000D01*
X176744174Y-114480000D01*
X176617007Y-114514075D01*
X176560000Y-114546988D01*
X176560000Y-113649364D01*
X176559999Y-113649364D01*
X176346513Y-113706567D01*
X176346507Y-113706570D01*
X176132422Y-113806399D01*
X176132420Y-113806400D01*
X175938926Y-113941886D01*
X175938920Y-113941891D01*
X175771891Y-114108920D01*
X175771890Y-114108922D01*
X175641880Y-114294595D01*
X175587303Y-114338219D01*
X175517804Y-114345412D01*
X175455450Y-114313890D01*
X175438730Y-114294594D01*
X175308494Y-114108597D01*
X175141402Y-113941506D01*
X175141395Y-113941501D01*
X174947834Y-113805967D01*
X174947830Y-113805965D01*
X174917648Y-113791891D01*
X174733663Y-113706097D01*
X174733659Y-113706096D01*
X174733655Y-113706094D01*
X174505413Y-113644938D01*
X174505403Y-113644936D01*
X174270001Y-113624341D01*
X174269999Y-113624341D01*
X174034596Y-113644936D01*
X174034586Y-113644938D01*
X173806344Y-113706094D01*
X173806335Y-113706098D01*
X173592171Y-113805964D01*
X173592169Y-113805965D01*
X173398597Y-113941505D01*
X173231505Y-114108597D01*
X173101575Y-114294158D01*
X173046998Y-114337783D01*
X172977500Y-114344977D01*
X172915145Y-114313454D01*
X172898425Y-114294158D01*
X172768494Y-114108597D01*
X172601402Y-113941506D01*
X172601395Y-113941501D01*
X172407834Y-113805967D01*
X172407830Y-113805965D01*
X172377648Y-113791891D01*
X172193663Y-113706097D01*
X172193659Y-113706096D01*
X172193655Y-113706094D01*
X171965413Y-113644938D01*
X171965403Y-113644936D01*
X171730001Y-113624341D01*
X171729999Y-113624341D01*
X171494596Y-113644936D01*
X171494586Y-113644938D01*
X171266344Y-113706094D01*
X171266335Y-113706098D01*
X171052171Y-113805964D01*
X171052169Y-113805965D01*
X170858597Y-113941505D01*
X170691505Y-114108597D01*
X170555965Y-114302169D01*
X170555964Y-114302171D01*
X170456098Y-114516335D01*
X170456094Y-114516344D01*
X170394938Y-114744586D01*
X170394936Y-114744596D01*
X170374341Y-114979999D01*
X165960500Y-114979999D01*
X165960499Y-113932128D01*
X165954091Y-113872517D01*
X165953002Y-113869598D01*
X165903797Y-113737671D01*
X165903793Y-113737664D01*
X165817547Y-113622455D01*
X165817544Y-113622452D01*
X165702335Y-113536206D01*
X165702328Y-113536202D01*
X165567482Y-113485908D01*
X165567483Y-113485908D01*
X165507883Y-113479501D01*
X165507881Y-113479500D01*
X165507873Y-113479500D01*
X165507864Y-113479500D01*
X163712129Y-113479500D01*
X163712123Y-113479501D01*
X163652516Y-113485908D01*
X163517671Y-113536202D01*
X163517664Y-113536206D01*
X163402455Y-113622452D01*
X163402452Y-113622455D01*
X163316206Y-113737664D01*
X163316202Y-113737671D01*
X163266997Y-113869598D01*
X163225126Y-113925532D01*
X163159661Y-113949949D01*
X163091388Y-113935097D01*
X163063134Y-113913946D01*
X162941082Y-113791894D01*
X162747578Y-113656399D01*
X162533492Y-113556570D01*
X162533486Y-113556567D01*
X162320000Y-113499364D01*
X162320000Y-114396988D01*
X162262993Y-114364075D01*
X162135826Y-114330000D01*
X162004174Y-114330000D01*
X161877007Y-114364075D01*
X161820000Y-114396988D01*
X161820000Y-113499364D01*
X161819999Y-113499364D01*
X161606513Y-113556567D01*
X161606507Y-113556570D01*
X161392422Y-113656399D01*
X161392420Y-113656400D01*
X161198926Y-113791886D01*
X161198920Y-113791891D01*
X161031891Y-113958920D01*
X161031890Y-113958922D01*
X160901880Y-114144595D01*
X160847303Y-114188219D01*
X160777804Y-114195412D01*
X160715450Y-114163890D01*
X160698730Y-114144594D01*
X160568494Y-113958597D01*
X160401402Y-113791506D01*
X160401395Y-113791501D01*
X160374190Y-113772452D01*
X160324518Y-113737671D01*
X160207834Y-113655967D01*
X160207830Y-113655965D01*
X160193674Y-113649364D01*
X159993663Y-113556097D01*
X159993659Y-113556096D01*
X159993655Y-113556094D01*
X159765413Y-113494938D01*
X159765403Y-113494936D01*
X159530001Y-113474341D01*
X159529999Y-113474341D01*
X159294596Y-113494936D01*
X159294586Y-113494938D01*
X159066344Y-113556094D01*
X159066335Y-113556098D01*
X158852171Y-113655964D01*
X158852169Y-113655965D01*
X158658597Y-113791505D01*
X158491505Y-113958597D01*
X158361575Y-114144158D01*
X158306998Y-114187783D01*
X158237500Y-114194977D01*
X158175145Y-114163454D01*
X158158425Y-114144158D01*
X158028494Y-113958597D01*
X157861402Y-113791506D01*
X157861395Y-113791501D01*
X157834190Y-113772452D01*
X157784518Y-113737671D01*
X157667834Y-113655967D01*
X157667830Y-113655965D01*
X157653674Y-113649364D01*
X157453663Y-113556097D01*
X157453659Y-113556096D01*
X157453655Y-113556094D01*
X157225413Y-113494938D01*
X157225403Y-113494936D01*
X156990001Y-113474341D01*
X156989999Y-113474341D01*
X156754596Y-113494936D01*
X156754586Y-113494938D01*
X156526344Y-113556094D01*
X156526335Y-113556098D01*
X156312171Y-113655964D01*
X156312169Y-113655965D01*
X156118597Y-113791505D01*
X155951505Y-113958597D01*
X155821575Y-114144158D01*
X155766998Y-114187783D01*
X155697500Y-114194977D01*
X155635145Y-114163454D01*
X155618425Y-114144158D01*
X155488494Y-113958597D01*
X155321402Y-113791506D01*
X155321395Y-113791501D01*
X155294190Y-113772452D01*
X155244518Y-113737671D01*
X155127834Y-113655967D01*
X155127830Y-113655965D01*
X155113674Y-113649364D01*
X154913663Y-113556097D01*
X154913659Y-113556096D01*
X154913655Y-113556094D01*
X154685413Y-113494938D01*
X154685403Y-113494936D01*
X154450001Y-113474341D01*
X154449999Y-113474341D01*
X154214596Y-113494936D01*
X154214586Y-113494938D01*
X153986344Y-113556094D01*
X153986335Y-113556098D01*
X153772171Y-113655964D01*
X153772169Y-113655965D01*
X153578597Y-113791505D01*
X153411505Y-113958597D01*
X153281575Y-114144158D01*
X153226998Y-114187783D01*
X153157500Y-114194977D01*
X153095145Y-114163454D01*
X153078425Y-114144158D01*
X152948494Y-113958597D01*
X152781402Y-113791506D01*
X152781395Y-113791501D01*
X152754190Y-113772452D01*
X152704518Y-113737671D01*
X152587834Y-113655967D01*
X152587830Y-113655965D01*
X152573674Y-113649364D01*
X152373663Y-113556097D01*
X152373659Y-113556096D01*
X152373655Y-113556094D01*
X152145413Y-113494938D01*
X152145403Y-113494936D01*
X151910001Y-113474341D01*
X151909999Y-113474341D01*
X151674596Y-113494936D01*
X151674586Y-113494938D01*
X151446344Y-113556094D01*
X151446335Y-113556098D01*
X151232171Y-113655964D01*
X151232169Y-113655965D01*
X151038597Y-113791505D01*
X150871505Y-113958597D01*
X150741575Y-114144158D01*
X150686998Y-114187783D01*
X150617500Y-114194977D01*
X150555145Y-114163454D01*
X150538425Y-114144158D01*
X150408494Y-113958597D01*
X150241402Y-113791506D01*
X150241395Y-113791501D01*
X150214190Y-113772452D01*
X150164518Y-113737671D01*
X150047834Y-113655967D01*
X150047830Y-113655965D01*
X150033674Y-113649364D01*
X149833663Y-113556097D01*
X149833659Y-113556096D01*
X149833655Y-113556094D01*
X149605413Y-113494938D01*
X149605403Y-113494936D01*
X149370001Y-113474341D01*
X149369999Y-113474341D01*
X149134596Y-113494936D01*
X149134586Y-113494938D01*
X148906344Y-113556094D01*
X148906335Y-113556098D01*
X148692171Y-113655964D01*
X148692169Y-113655965D01*
X148498597Y-113791505D01*
X148331505Y-113958597D01*
X148201575Y-114144158D01*
X148146998Y-114187783D01*
X148077500Y-114194977D01*
X148015145Y-114163454D01*
X147998425Y-114144158D01*
X147868494Y-113958597D01*
X147701402Y-113791506D01*
X147701395Y-113791501D01*
X147674190Y-113772452D01*
X147624518Y-113737671D01*
X147507834Y-113655967D01*
X147507830Y-113655965D01*
X147493674Y-113649364D01*
X147293663Y-113556097D01*
X147293659Y-113556096D01*
X147293655Y-113556094D01*
X147065413Y-113494938D01*
X147065403Y-113494936D01*
X146830001Y-113474341D01*
X146829999Y-113474341D01*
X146594596Y-113494936D01*
X146594586Y-113494938D01*
X146366344Y-113556094D01*
X146366335Y-113556098D01*
X146152171Y-113655964D01*
X146152169Y-113655965D01*
X145958597Y-113791505D01*
X145791505Y-113958597D01*
X145661575Y-114144158D01*
X145606998Y-114187783D01*
X145537500Y-114194977D01*
X145475145Y-114163454D01*
X145458425Y-114144158D01*
X145328494Y-113958597D01*
X145161402Y-113791506D01*
X145161395Y-113791501D01*
X145134190Y-113772452D01*
X145084518Y-113737671D01*
X144967834Y-113655967D01*
X144967830Y-113655965D01*
X144953674Y-113649364D01*
X144753663Y-113556097D01*
X144753659Y-113556096D01*
X144753655Y-113556094D01*
X144525413Y-113494938D01*
X144525403Y-113494936D01*
X144290001Y-113474341D01*
X144289999Y-113474341D01*
X144054596Y-113494936D01*
X144054586Y-113494938D01*
X143826344Y-113556094D01*
X143826335Y-113556098D01*
X143612171Y-113655964D01*
X143612169Y-113655965D01*
X143418597Y-113791505D01*
X143251505Y-113958597D01*
X143121575Y-114144158D01*
X143066998Y-114187783D01*
X142997500Y-114194977D01*
X142935145Y-114163454D01*
X142918425Y-114144158D01*
X142788494Y-113958597D01*
X142621402Y-113791506D01*
X142621395Y-113791501D01*
X142594190Y-113772452D01*
X142544518Y-113737671D01*
X142427834Y-113655967D01*
X142427830Y-113655965D01*
X142413674Y-113649364D01*
X142213663Y-113556097D01*
X142213659Y-113556096D01*
X142213655Y-113556094D01*
X141985413Y-113494938D01*
X141985403Y-113494936D01*
X141750001Y-113474341D01*
X141749999Y-113474341D01*
X141514596Y-113494936D01*
X141514586Y-113494938D01*
X141286344Y-113556094D01*
X141286335Y-113556098D01*
X141072171Y-113655964D01*
X141072169Y-113655965D01*
X140878597Y-113791505D01*
X140711505Y-113958597D01*
X140575965Y-114152169D01*
X140575964Y-114152171D01*
X140476098Y-114366335D01*
X140476094Y-114366344D01*
X140414938Y-114594586D01*
X140414936Y-114594596D01*
X140394341Y-114829999D01*
X137830500Y-114829999D01*
X137830500Y-114733713D01*
X137797246Y-114523757D01*
X137731557Y-114321588D01*
X137635051Y-114132184D01*
X137635049Y-114132181D01*
X137635048Y-114132179D01*
X137510109Y-113960213D01*
X137359786Y-113809890D01*
X137187820Y-113684951D01*
X136998414Y-113588444D01*
X136998413Y-113588443D01*
X136998412Y-113588443D01*
X136796243Y-113522754D01*
X136796241Y-113522753D01*
X136796240Y-113522753D01*
X136620621Y-113494938D01*
X136586287Y-113489500D01*
X136373713Y-113489500D01*
X136339379Y-113494938D01*
X136163760Y-113522753D01*
X135961585Y-113588444D01*
X135772179Y-113684951D01*
X135600213Y-113809890D01*
X135449890Y-113960213D01*
X135324951Y-114132179D01*
X135228444Y-114321585D01*
X135162753Y-114523760D01*
X135151534Y-114594596D01*
X135129500Y-114733713D01*
X133980500Y-114733713D01*
X133980500Y-99270000D01*
X170954815Y-99270000D01*
X170973503Y-99447805D01*
X170973504Y-99447807D01*
X171028747Y-99617829D01*
X171028750Y-99617835D01*
X171118141Y-99772665D01*
X171167650Y-99827650D01*
X171187650Y-99849862D01*
X171217880Y-99912853D01*
X171219500Y-99932834D01*
X171219500Y-100168270D01*
X171199815Y-100235309D01*
X171187650Y-100251242D01*
X171128144Y-100317329D01*
X171128139Y-100317336D01*
X171038750Y-100472164D01*
X171038747Y-100472170D01*
X170983504Y-100642192D01*
X170983503Y-100642194D01*
X170964815Y-100820000D01*
X170983503Y-100997805D01*
X170983504Y-100997807D01*
X171038747Y-101167829D01*
X171038750Y-101167835D01*
X171128141Y-101322665D01*
X171169812Y-101368946D01*
X171247764Y-101455521D01*
X171247767Y-101455523D01*
X171247770Y-101455526D01*
X171392407Y-101560612D01*
X171555733Y-101633329D01*
X171730609Y-101670500D01*
X171730610Y-101670500D01*
X171909389Y-101670500D01*
X171909391Y-101670500D01*
X172084267Y-101633329D01*
X172247593Y-101560612D01*
X172392230Y-101455526D01*
X172511859Y-101322665D01*
X172601250Y-101167835D01*
X172656497Y-100997803D01*
X172675185Y-100820000D01*
X172656497Y-100642197D01*
X172601250Y-100472165D01*
X172511859Y-100317335D01*
X172511855Y-100317329D01*
X172452350Y-100251242D01*
X172422120Y-100188250D01*
X172420500Y-100168270D01*
X172420500Y-99910622D01*
X172440185Y-99843583D01*
X172452350Y-99827650D01*
X172501859Y-99772665D01*
X172591250Y-99617835D01*
X172646497Y-99447803D01*
X172665185Y-99270000D01*
X172646497Y-99092197D01*
X172591250Y-98922165D01*
X172501859Y-98767335D01*
X172455003Y-98715296D01*
X172382235Y-98634478D01*
X172382232Y-98634476D01*
X172382231Y-98634475D01*
X172382230Y-98634474D01*
X172237593Y-98529388D01*
X172074267Y-98456671D01*
X172074265Y-98456670D01*
X171946594Y-98429533D01*
X171899391Y-98419500D01*
X171720609Y-98419500D01*
X171689954Y-98426015D01*
X171545733Y-98456670D01*
X171545728Y-98456672D01*
X171382408Y-98529387D01*
X171237768Y-98634475D01*
X171118140Y-98767336D01*
X171028750Y-98922164D01*
X171028747Y-98922170D01*
X170973504Y-99092192D01*
X170973503Y-99092194D01*
X170954815Y-99270000D01*
X133980500Y-99270000D01*
X133980500Y-94798995D01*
X135154499Y-94798995D01*
X135181418Y-94934322D01*
X135181421Y-94934332D01*
X135234221Y-95061804D01*
X135234228Y-95061817D01*
X135310885Y-95176541D01*
X135310888Y-95176545D01*
X135408454Y-95274111D01*
X135408458Y-95274114D01*
X135523182Y-95350771D01*
X135523195Y-95350778D01*
X135650667Y-95403578D01*
X135650672Y-95403580D01*
X135650676Y-95403580D01*
X135650677Y-95403581D01*
X135786004Y-95430500D01*
X135786007Y-95430500D01*
X135923995Y-95430500D01*
X136015041Y-95412389D01*
X136059328Y-95403580D01*
X136186811Y-95350775D01*
X136301542Y-95274114D01*
X136399114Y-95176542D01*
X136475775Y-95061811D01*
X136528580Y-94934328D01*
X136555500Y-94798993D01*
X136555500Y-94661007D01*
X136555500Y-94661004D01*
X136528581Y-94525677D01*
X136528580Y-94525676D01*
X136528580Y-94525672D01*
X136528578Y-94525667D01*
X136475778Y-94398195D01*
X136475771Y-94398182D01*
X136399114Y-94283458D01*
X136399111Y-94283454D01*
X136301545Y-94185888D01*
X136301541Y-94185885D01*
X136186817Y-94109228D01*
X136186804Y-94109221D01*
X136059332Y-94056421D01*
X136059322Y-94056418D01*
X135923995Y-94029500D01*
X135923993Y-94029500D01*
X135786007Y-94029500D01*
X135786005Y-94029500D01*
X135650677Y-94056418D01*
X135650667Y-94056421D01*
X135523195Y-94109221D01*
X135523182Y-94109228D01*
X135408458Y-94185885D01*
X135408454Y-94185888D01*
X135310888Y-94283454D01*
X135310885Y-94283458D01*
X135234228Y-94398182D01*
X135234221Y-94398195D01*
X135181421Y-94525667D01*
X135181418Y-94525677D01*
X135154500Y-94661004D01*
X135154500Y-94661007D01*
X135154500Y-94798993D01*
X135154500Y-94798995D01*
X135154499Y-94798995D01*
X133980500Y-94798995D01*
X133980500Y-92770000D01*
X141124815Y-92770000D01*
X141143503Y-92947805D01*
X141143504Y-92947807D01*
X141198747Y-93117829D01*
X141198750Y-93117835D01*
X141288141Y-93272665D01*
X141329812Y-93318946D01*
X141407764Y-93405521D01*
X141407767Y-93405523D01*
X141407770Y-93405526D01*
X141552407Y-93510612D01*
X141715733Y-93583329D01*
X141890609Y-93620500D01*
X141890610Y-93620500D01*
X142069389Y-93620500D01*
X142069391Y-93620500D01*
X142244267Y-93583329D01*
X142407593Y-93510612D01*
X142552230Y-93405526D01*
X142671859Y-93272665D01*
X142761250Y-93117835D01*
X142816497Y-92947803D01*
X142831294Y-92807016D01*
X142857877Y-92742405D01*
X142866923Y-92732310D01*
X143222416Y-92376819D01*
X143283739Y-92343334D01*
X143310097Y-92340500D01*
X143369389Y-92340500D01*
X143369391Y-92340500D01*
X143544267Y-92303329D01*
X143707593Y-92230612D01*
X143852230Y-92125526D01*
X143971859Y-91992665D01*
X144061250Y-91837835D01*
X144116497Y-91667803D01*
X144119419Y-91640000D01*
X155964815Y-91640000D01*
X155983503Y-91817805D01*
X155983504Y-91817807D01*
X156038747Y-91987829D01*
X156038750Y-91987835D01*
X156128141Y-92142665D01*
X156158647Y-92176545D01*
X156187650Y-92208756D01*
X156217880Y-92271747D01*
X156219500Y-92291728D01*
X156219500Y-92771663D01*
X156210123Y-92815778D01*
X156210758Y-92815985D01*
X156208797Y-92822019D01*
X156208781Y-92822096D01*
X156208749Y-92822167D01*
X156153504Y-92992192D01*
X156153503Y-92992194D01*
X156134815Y-93170000D01*
X156153503Y-93347805D01*
X156153504Y-93347807D01*
X156208747Y-93517829D01*
X156208750Y-93517835D01*
X156298141Y-93672665D01*
X156339812Y-93718946D01*
X156417764Y-93805521D01*
X156417767Y-93805523D01*
X156417770Y-93805526D01*
X156562407Y-93910612D01*
X156725733Y-93983329D01*
X156900609Y-94020500D01*
X156900610Y-94020500D01*
X157079389Y-94020500D01*
X157079391Y-94020500D01*
X157254267Y-93983329D01*
X157417593Y-93910612D01*
X157562230Y-93805526D01*
X157681859Y-93672665D01*
X157771250Y-93517835D01*
X157826497Y-93347803D01*
X157845185Y-93170000D01*
X157826497Y-92992197D01*
X157771250Y-92822165D01*
X157681859Y-92667335D01*
X157635003Y-92615296D01*
X157562235Y-92534478D01*
X157562232Y-92534476D01*
X157562231Y-92534475D01*
X157562230Y-92534474D01*
X157471613Y-92468636D01*
X157428948Y-92413306D01*
X157420500Y-92368319D01*
X157420500Y-92291728D01*
X157440185Y-92224689D01*
X157452350Y-92208756D01*
X157511859Y-92142665D01*
X157601250Y-91987835D01*
X157656497Y-91817803D01*
X157675185Y-91640000D01*
X157656497Y-91462197D01*
X157601250Y-91292165D01*
X157511859Y-91137335D01*
X157465003Y-91085296D01*
X157392235Y-91004478D01*
X157392232Y-91004476D01*
X157392231Y-91004475D01*
X157392230Y-91004474D01*
X157247593Y-90899388D01*
X157084267Y-90826671D01*
X157084265Y-90826670D01*
X156956594Y-90799533D01*
X156909391Y-90789500D01*
X156730609Y-90789500D01*
X156699954Y-90796015D01*
X156555733Y-90826670D01*
X156555728Y-90826672D01*
X156392408Y-90899387D01*
X156247768Y-91004475D01*
X156128140Y-91137336D01*
X156038750Y-91292164D01*
X156038747Y-91292170D01*
X155983504Y-91462192D01*
X155983503Y-91462194D01*
X155964815Y-91640000D01*
X144119419Y-91640000D01*
X144135185Y-91490000D01*
X144116497Y-91312197D01*
X144061250Y-91142165D01*
X143971859Y-90987335D01*
X143892672Y-90899389D01*
X143852235Y-90854478D01*
X143852232Y-90854476D01*
X143852231Y-90854475D01*
X143852230Y-90854474D01*
X143707593Y-90749388D01*
X143544267Y-90676671D01*
X143544265Y-90676670D01*
X143416594Y-90649533D01*
X143369391Y-90639500D01*
X143190609Y-90639500D01*
X143159954Y-90646015D01*
X143015733Y-90676670D01*
X143015728Y-90676672D01*
X142852408Y-90749387D01*
X142707768Y-90854475D01*
X142588140Y-90987336D01*
X142498750Y-91142164D01*
X142498747Y-91142170D01*
X142443504Y-91312192D01*
X142443504Y-91312193D01*
X142443503Y-91312197D01*
X142434465Y-91398189D01*
X142431055Y-91430630D01*
X142404470Y-91495244D01*
X142395415Y-91505348D01*
X142017584Y-91883181D01*
X141956261Y-91916666D01*
X141929903Y-91919500D01*
X141890609Y-91919500D01*
X141859954Y-91926015D01*
X141715733Y-91956670D01*
X141715728Y-91956672D01*
X141552408Y-92029387D01*
X141407768Y-92134475D01*
X141288140Y-92267336D01*
X141198750Y-92422164D01*
X141198747Y-92422170D01*
X141143504Y-92592192D01*
X141143503Y-92592194D01*
X141124815Y-92770000D01*
X133980500Y-92770000D01*
X133980500Y-91798995D01*
X135154499Y-91798995D01*
X135181418Y-91934322D01*
X135181421Y-91934332D01*
X135234221Y-92061804D01*
X135234228Y-92061817D01*
X135310885Y-92176541D01*
X135310888Y-92176545D01*
X135408454Y-92274111D01*
X135408458Y-92274114D01*
X135523182Y-92350771D01*
X135523195Y-92350778D01*
X135650667Y-92403578D01*
X135650672Y-92403580D01*
X135650676Y-92403580D01*
X135650677Y-92403581D01*
X135786004Y-92430500D01*
X135786007Y-92430500D01*
X135923995Y-92430500D01*
X136015041Y-92412389D01*
X136059328Y-92403580D01*
X136186811Y-92350775D01*
X136301542Y-92274114D01*
X136399114Y-92176542D01*
X136475775Y-92061811D01*
X136528580Y-91934328D01*
X136551758Y-91817805D01*
X136555500Y-91798995D01*
X136555500Y-91661004D01*
X136528581Y-91525677D01*
X136528580Y-91525676D01*
X136528580Y-91525672D01*
X136520162Y-91505348D01*
X136475778Y-91398195D01*
X136475771Y-91398182D01*
X136399114Y-91283458D01*
X136399111Y-91283454D01*
X136301545Y-91185888D01*
X136301541Y-91185885D01*
X136186817Y-91109228D01*
X136186804Y-91109221D01*
X136059332Y-91056421D01*
X136059322Y-91056418D01*
X135923995Y-91029500D01*
X135923993Y-91029500D01*
X135786007Y-91029500D01*
X135786005Y-91029500D01*
X135650677Y-91056418D01*
X135650667Y-91056421D01*
X135523195Y-91109221D01*
X135523182Y-91109228D01*
X135408458Y-91185885D01*
X135408454Y-91185888D01*
X135310888Y-91283454D01*
X135310885Y-91283458D01*
X135234228Y-91398182D01*
X135234221Y-91398195D01*
X135181421Y-91525667D01*
X135181418Y-91525677D01*
X135154500Y-91661004D01*
X135154500Y-91661007D01*
X135154500Y-91798993D01*
X135154500Y-91798995D01*
X135154499Y-91798995D01*
X133980500Y-91798995D01*
X133980500Y-84883750D01*
X133980726Y-84876263D01*
X133984486Y-84814108D01*
X133986929Y-84773713D01*
X135129500Y-84773713D01*
X135129500Y-84986287D01*
X135137533Y-85037007D01*
X135162703Y-85195925D01*
X135162754Y-85196243D01*
X135228255Y-85397834D01*
X135228444Y-85398414D01*
X135324951Y-85587820D01*
X135449890Y-85759786D01*
X135600213Y-85910109D01*
X135772179Y-86035048D01*
X135772181Y-86035049D01*
X135772184Y-86035051D01*
X135961588Y-86131557D01*
X136163757Y-86197246D01*
X136373713Y-86230500D01*
X136373714Y-86230500D01*
X136586286Y-86230500D01*
X136586287Y-86230500D01*
X136796243Y-86197246D01*
X136998412Y-86131557D01*
X137187816Y-86035051D01*
X137322020Y-85937547D01*
X137359786Y-85910109D01*
X137359788Y-85910106D01*
X137359792Y-85910104D01*
X137510104Y-85759792D01*
X137510106Y-85759788D01*
X137510109Y-85759786D01*
X137635048Y-85587820D01*
X137635047Y-85587820D01*
X137635051Y-85587816D01*
X137731557Y-85398412D01*
X137797246Y-85196243D01*
X137830500Y-84986287D01*
X137830500Y-84773713D01*
X137821992Y-84719999D01*
X140384341Y-84719999D01*
X140384341Y-84720000D01*
X140404936Y-84955403D01*
X140404938Y-84955413D01*
X140466094Y-85183655D01*
X140466096Y-85183659D01*
X140466097Y-85183663D01*
X140550667Y-85365023D01*
X140565965Y-85397830D01*
X140565967Y-85397834D01*
X140674281Y-85552521D01*
X140701505Y-85591401D01*
X140868599Y-85758495D01*
X140959762Y-85822328D01*
X141062165Y-85894032D01*
X141062167Y-85894033D01*
X141062170Y-85894035D01*
X141276337Y-85993903D01*
X141504592Y-86055063D01*
X141681034Y-86070500D01*
X141739999Y-86075659D01*
X141740000Y-86075659D01*
X141740001Y-86075659D01*
X141798966Y-86070500D01*
X141975408Y-86055063D01*
X142203663Y-85993903D01*
X142417830Y-85894035D01*
X142611401Y-85758495D01*
X142778495Y-85591401D01*
X142908425Y-85405842D01*
X142963002Y-85362217D01*
X143032500Y-85355023D01*
X143094855Y-85386546D01*
X143111575Y-85405842D01*
X143241500Y-85591395D01*
X143241505Y-85591401D01*
X143408599Y-85758495D01*
X143499762Y-85822328D01*
X143602165Y-85894032D01*
X143602167Y-85894033D01*
X143602170Y-85894035D01*
X143816337Y-85993903D01*
X144044592Y-86055063D01*
X144221034Y-86070500D01*
X144279999Y-86075659D01*
X144280000Y-86075659D01*
X144280001Y-86075659D01*
X144338966Y-86070500D01*
X144515408Y-86055063D01*
X144743663Y-85993903D01*
X144957830Y-85894035D01*
X145151401Y-85758495D01*
X145318495Y-85591401D01*
X145448425Y-85405842D01*
X145503002Y-85362217D01*
X145572500Y-85355023D01*
X145634855Y-85386546D01*
X145651575Y-85405842D01*
X145781500Y-85591395D01*
X145781505Y-85591401D01*
X145948599Y-85758495D01*
X146039762Y-85822328D01*
X146142165Y-85894032D01*
X146142167Y-85894033D01*
X146142170Y-85894035D01*
X146356337Y-85993903D01*
X146584592Y-86055063D01*
X146761034Y-86070500D01*
X146819999Y-86075659D01*
X146820000Y-86075659D01*
X146820001Y-86075659D01*
X146878966Y-86070500D01*
X147055408Y-86055063D01*
X147283663Y-85993903D01*
X147497830Y-85894035D01*
X147691401Y-85758495D01*
X147858495Y-85591401D01*
X147988425Y-85405842D01*
X148043002Y-85362217D01*
X148112500Y-85355023D01*
X148174855Y-85386546D01*
X148191575Y-85405842D01*
X148321500Y-85591395D01*
X148321505Y-85591401D01*
X148488599Y-85758495D01*
X148579762Y-85822328D01*
X148682165Y-85894032D01*
X148682167Y-85894033D01*
X148682170Y-85894035D01*
X148896337Y-85993903D01*
X149124592Y-86055063D01*
X149301034Y-86070500D01*
X149359999Y-86075659D01*
X149360000Y-86075659D01*
X149360001Y-86075659D01*
X149418966Y-86070500D01*
X149595408Y-86055063D01*
X149823663Y-85993903D01*
X150037830Y-85894035D01*
X150231401Y-85758495D01*
X150398495Y-85591401D01*
X150528425Y-85405842D01*
X150583002Y-85362217D01*
X150652500Y-85355023D01*
X150714855Y-85386546D01*
X150731575Y-85405842D01*
X150861500Y-85591395D01*
X150861505Y-85591401D01*
X151028599Y-85758495D01*
X151119762Y-85822328D01*
X151222165Y-85894032D01*
X151222167Y-85894033D01*
X151222170Y-85894035D01*
X151436337Y-85993903D01*
X151664592Y-86055063D01*
X151841034Y-86070500D01*
X151899999Y-86075659D01*
X151900000Y-86075659D01*
X151900001Y-86075659D01*
X151958966Y-86070500D01*
X152135408Y-86055063D01*
X152363663Y-85993903D01*
X152577830Y-85894035D01*
X152771401Y-85758495D01*
X152938495Y-85591401D01*
X153068425Y-85405842D01*
X153123002Y-85362217D01*
X153192500Y-85355023D01*
X153254855Y-85386546D01*
X153271575Y-85405842D01*
X153401500Y-85591395D01*
X153401505Y-85591401D01*
X153568599Y-85758495D01*
X153659762Y-85822328D01*
X153762165Y-85894032D01*
X153762167Y-85894033D01*
X153762170Y-85894035D01*
X153976337Y-85993903D01*
X154204592Y-86055063D01*
X154381034Y-86070500D01*
X154439999Y-86075659D01*
X154440000Y-86075659D01*
X154440001Y-86075659D01*
X154498966Y-86070500D01*
X154675408Y-86055063D01*
X154903663Y-85993903D01*
X155117830Y-85894035D01*
X155311401Y-85758495D01*
X155478495Y-85591401D01*
X155608425Y-85405842D01*
X155663002Y-85362217D01*
X155732500Y-85355023D01*
X155794855Y-85386546D01*
X155811575Y-85405842D01*
X155941500Y-85591395D01*
X155941505Y-85591401D01*
X156108599Y-85758495D01*
X156199762Y-85822328D01*
X156302165Y-85894032D01*
X156302167Y-85894033D01*
X156302170Y-85894035D01*
X156516337Y-85993903D01*
X156744592Y-86055063D01*
X156921034Y-86070500D01*
X156979999Y-86075659D01*
X156980000Y-86075659D01*
X156980001Y-86075659D01*
X157038966Y-86070500D01*
X157215408Y-86055063D01*
X157443663Y-85993903D01*
X157657830Y-85894035D01*
X157851401Y-85758495D01*
X158018495Y-85591401D01*
X158148730Y-85405405D01*
X158203307Y-85361781D01*
X158272805Y-85354587D01*
X158335160Y-85386110D01*
X158351879Y-85405405D01*
X158481890Y-85591078D01*
X158648917Y-85758105D01*
X158842421Y-85893600D01*
X159056507Y-85993429D01*
X159056516Y-85993433D01*
X159270000Y-86050634D01*
X159270000Y-85153012D01*
X159327007Y-85185925D01*
X159454174Y-85220000D01*
X159585826Y-85220000D01*
X159712993Y-85185925D01*
X159770000Y-85153012D01*
X159770000Y-86050633D01*
X159983483Y-85993433D01*
X159983492Y-85993429D01*
X160197578Y-85893600D01*
X160391078Y-85758108D01*
X160513133Y-85636053D01*
X160574456Y-85602568D01*
X160644148Y-85607552D01*
X160700082Y-85649423D01*
X160716997Y-85680401D01*
X160766202Y-85812328D01*
X160766206Y-85812335D01*
X160852452Y-85927544D01*
X160852455Y-85927547D01*
X160967664Y-86013793D01*
X160967671Y-86013797D01*
X161102517Y-86064091D01*
X161102516Y-86064091D01*
X161109444Y-86064835D01*
X161162127Y-86070500D01*
X162957872Y-86070499D01*
X163017483Y-86064091D01*
X163152331Y-86013796D01*
X163267546Y-85927546D01*
X163353796Y-85812331D01*
X163404091Y-85677483D01*
X163410500Y-85617873D01*
X163410500Y-84729999D01*
X170374341Y-84729999D01*
X170374341Y-84730000D01*
X170394936Y-84965403D01*
X170394938Y-84965413D01*
X170456094Y-85193655D01*
X170456096Y-85193659D01*
X170456097Y-85193663D01*
X170536004Y-85365023D01*
X170555965Y-85407830D01*
X170555967Y-85407834D01*
X170664281Y-85562521D01*
X170691505Y-85601401D01*
X170858599Y-85768495D01*
X170955384Y-85836265D01*
X171052165Y-85904032D01*
X171052167Y-85904033D01*
X171052170Y-85904035D01*
X171266337Y-86003903D01*
X171266343Y-86003904D01*
X171266344Y-86003905D01*
X171303262Y-86013797D01*
X171494592Y-86065063D01*
X171671034Y-86080500D01*
X171729999Y-86085659D01*
X171730000Y-86085659D01*
X171730001Y-86085659D01*
X171788966Y-86080500D01*
X171965408Y-86065063D01*
X172193663Y-86003903D01*
X172407830Y-85904035D01*
X172601401Y-85768495D01*
X172768495Y-85601401D01*
X172898425Y-85415842D01*
X172953002Y-85372217D01*
X173022500Y-85365023D01*
X173084855Y-85396546D01*
X173101575Y-85415842D01*
X173231500Y-85601395D01*
X173231505Y-85601401D01*
X173398599Y-85768495D01*
X173495384Y-85836265D01*
X173592165Y-85904032D01*
X173592167Y-85904033D01*
X173592170Y-85904035D01*
X173806337Y-86003903D01*
X173806343Y-86003904D01*
X173806344Y-86003905D01*
X173843262Y-86013797D01*
X174034592Y-86065063D01*
X174211034Y-86080500D01*
X174269999Y-86085659D01*
X174270000Y-86085659D01*
X174270001Y-86085659D01*
X174328966Y-86080500D01*
X174505408Y-86065063D01*
X174733663Y-86003903D01*
X174947830Y-85904035D01*
X175141401Y-85768495D01*
X175308495Y-85601401D01*
X175438730Y-85415405D01*
X175493307Y-85371781D01*
X175562805Y-85364587D01*
X175625160Y-85396110D01*
X175641879Y-85415405D01*
X175771890Y-85601078D01*
X175938917Y-85768105D01*
X176132421Y-85903600D01*
X176346507Y-86003429D01*
X176346516Y-86003433D01*
X176560000Y-86060634D01*
X176560000Y-85163012D01*
X176617007Y-85195925D01*
X176744174Y-85230000D01*
X176875826Y-85230000D01*
X177002993Y-85195925D01*
X177060000Y-85163012D01*
X177060000Y-86060633D01*
X177273483Y-86003433D01*
X177273492Y-86003429D01*
X177487578Y-85903600D01*
X177681078Y-85768108D01*
X177803133Y-85646053D01*
X177864456Y-85612568D01*
X177934148Y-85617552D01*
X177990082Y-85659423D01*
X178006997Y-85690401D01*
X178056202Y-85822328D01*
X178056206Y-85822335D01*
X178142452Y-85937544D01*
X178142455Y-85937547D01*
X178257664Y-86023793D01*
X178257671Y-86023797D01*
X178392517Y-86074091D01*
X178392516Y-86074091D01*
X178399444Y-86074835D01*
X178452127Y-86080500D01*
X180247872Y-86080499D01*
X180307483Y-86074091D01*
X180442331Y-86023796D01*
X180557546Y-85937546D01*
X180643796Y-85822331D01*
X180694091Y-85687483D01*
X180700500Y-85627873D01*
X180700500Y-84773713D01*
X183069500Y-84773713D01*
X183069500Y-84986287D01*
X183077533Y-85037007D01*
X183102703Y-85195925D01*
X183102754Y-85196243D01*
X183168255Y-85397834D01*
X183168444Y-85398414D01*
X183264951Y-85587820D01*
X183389890Y-85759786D01*
X183540213Y-85910109D01*
X183712179Y-86035048D01*
X183712181Y-86035049D01*
X183712184Y-86035051D01*
X183901588Y-86131557D01*
X184103757Y-86197246D01*
X184313713Y-86230500D01*
X184313714Y-86230500D01*
X184526286Y-86230500D01*
X184526287Y-86230500D01*
X184736243Y-86197246D01*
X184938412Y-86131557D01*
X185127816Y-86035051D01*
X185262020Y-85937547D01*
X185299786Y-85910109D01*
X185299788Y-85910106D01*
X185299792Y-85910104D01*
X185450104Y-85759792D01*
X185450106Y-85759788D01*
X185450109Y-85759786D01*
X185575048Y-85587820D01*
X185575047Y-85587820D01*
X185575051Y-85587816D01*
X185671557Y-85398412D01*
X185737246Y-85196243D01*
X185770500Y-84986287D01*
X185770500Y-84773713D01*
X185737246Y-84563757D01*
X185671557Y-84361588D01*
X185575051Y-84172184D01*
X185575049Y-84172181D01*
X185575048Y-84172179D01*
X185450109Y-84000213D01*
X185299786Y-83849890D01*
X185127820Y-83724951D01*
X184938414Y-83628444D01*
X184938413Y-83628443D01*
X184938412Y-83628443D01*
X184736243Y-83562754D01*
X184736241Y-83562753D01*
X184736240Y-83562753D01*
X184574957Y-83537208D01*
X184526287Y-83529500D01*
X184313713Y-83529500D01*
X184265042Y-83537208D01*
X184103760Y-83562753D01*
X183901585Y-83628444D01*
X183712179Y-83724951D01*
X183540213Y-83849890D01*
X183389890Y-84000213D01*
X183264951Y-84172179D01*
X183168444Y-84361585D01*
X183102753Y-84563760D01*
X183069500Y-84773713D01*
X180700500Y-84773713D01*
X180700499Y-83832128D01*
X180694091Y-83772517D01*
X180693002Y-83769598D01*
X180643797Y-83637671D01*
X180643793Y-83637664D01*
X180557547Y-83522455D01*
X180557544Y-83522452D01*
X180442335Y-83436206D01*
X180442328Y-83436202D01*
X180307482Y-83385908D01*
X180307483Y-83385908D01*
X180247883Y-83379501D01*
X180247881Y-83379500D01*
X180247873Y-83379500D01*
X180247864Y-83379500D01*
X178452129Y-83379500D01*
X178452123Y-83379501D01*
X178392516Y-83385908D01*
X178257671Y-83436202D01*
X178257664Y-83436206D01*
X178142455Y-83522452D01*
X178142452Y-83522455D01*
X178056206Y-83637664D01*
X178056202Y-83637671D01*
X178006997Y-83769598D01*
X177965126Y-83825532D01*
X177899661Y-83849949D01*
X177831388Y-83835097D01*
X177803134Y-83813946D01*
X177681082Y-83691894D01*
X177487578Y-83556399D01*
X177273492Y-83456570D01*
X177273486Y-83456567D01*
X177060000Y-83399364D01*
X177060000Y-84296988D01*
X177002993Y-84264075D01*
X176875826Y-84230000D01*
X176744174Y-84230000D01*
X176617007Y-84264075D01*
X176560000Y-84296988D01*
X176560000Y-83399364D01*
X176559999Y-83399364D01*
X176346513Y-83456567D01*
X176346507Y-83456570D01*
X176132422Y-83556399D01*
X176132420Y-83556400D01*
X175938926Y-83691886D01*
X175938920Y-83691891D01*
X175771891Y-83858920D01*
X175771890Y-83858922D01*
X175641880Y-84044595D01*
X175587303Y-84088219D01*
X175517804Y-84095412D01*
X175455450Y-84063890D01*
X175438730Y-84044594D01*
X175308494Y-83858597D01*
X175141402Y-83691506D01*
X175141395Y-83691501D01*
X175127663Y-83681886D01*
X175064518Y-83637671D01*
X174947834Y-83555967D01*
X174947830Y-83555965D01*
X174926383Y-83545964D01*
X174733663Y-83456097D01*
X174733659Y-83456096D01*
X174733655Y-83456094D01*
X174505413Y-83394938D01*
X174505403Y-83394936D01*
X174270001Y-83374341D01*
X174269999Y-83374341D01*
X174034596Y-83394936D01*
X174034586Y-83394938D01*
X173806344Y-83456094D01*
X173806335Y-83456098D01*
X173592171Y-83555964D01*
X173592169Y-83555965D01*
X173398597Y-83691505D01*
X173231505Y-83858597D01*
X173101575Y-84044158D01*
X173046998Y-84087783D01*
X172977500Y-84094977D01*
X172915145Y-84063454D01*
X172898425Y-84044158D01*
X172768494Y-83858597D01*
X172601402Y-83691506D01*
X172601395Y-83691501D01*
X172587663Y-83681886D01*
X172524518Y-83637671D01*
X172407834Y-83555967D01*
X172407830Y-83555965D01*
X172386383Y-83545964D01*
X172193663Y-83456097D01*
X172193659Y-83456096D01*
X172193655Y-83456094D01*
X171965413Y-83394938D01*
X171965403Y-83394936D01*
X171730001Y-83374341D01*
X171729999Y-83374341D01*
X171494596Y-83394936D01*
X171494586Y-83394938D01*
X171266344Y-83456094D01*
X171266335Y-83456098D01*
X171052171Y-83555964D01*
X171052169Y-83555965D01*
X170858597Y-83691505D01*
X170691505Y-83858597D01*
X170555965Y-84052169D01*
X170555964Y-84052171D01*
X170456098Y-84266335D01*
X170456094Y-84266344D01*
X170394938Y-84494586D01*
X170394936Y-84494596D01*
X170374341Y-84729999D01*
X163410500Y-84729999D01*
X163410499Y-83822128D01*
X163404091Y-83762517D01*
X163403002Y-83759598D01*
X163353797Y-83627671D01*
X163353793Y-83627664D01*
X163267547Y-83512455D01*
X163267544Y-83512452D01*
X163152335Y-83426206D01*
X163152328Y-83426202D01*
X163017482Y-83375908D01*
X163017483Y-83375908D01*
X162957883Y-83369501D01*
X162957881Y-83369500D01*
X162957873Y-83369500D01*
X162957864Y-83369500D01*
X161162129Y-83369500D01*
X161162123Y-83369501D01*
X161102516Y-83375908D01*
X160967671Y-83426202D01*
X160967664Y-83426206D01*
X160852455Y-83512452D01*
X160852452Y-83512455D01*
X160766206Y-83627664D01*
X160766202Y-83627671D01*
X160716997Y-83759598D01*
X160675126Y-83815532D01*
X160609661Y-83839949D01*
X160541388Y-83825097D01*
X160513134Y-83803946D01*
X160391082Y-83681894D01*
X160197578Y-83546399D01*
X159983492Y-83446570D01*
X159983486Y-83446567D01*
X159770000Y-83389364D01*
X159770000Y-84286988D01*
X159712993Y-84254075D01*
X159585826Y-84220000D01*
X159454174Y-84220000D01*
X159327007Y-84254075D01*
X159270000Y-84286988D01*
X159270000Y-83389364D01*
X159269999Y-83389364D01*
X159056513Y-83446567D01*
X159056507Y-83446570D01*
X158842422Y-83546399D01*
X158842420Y-83546400D01*
X158648926Y-83681886D01*
X158648920Y-83681891D01*
X158481891Y-83848920D01*
X158481890Y-83848922D01*
X158351880Y-84034595D01*
X158297303Y-84078219D01*
X158227804Y-84085412D01*
X158165450Y-84053890D01*
X158148730Y-84034594D01*
X158018494Y-83848597D01*
X157851402Y-83681506D01*
X157851395Y-83681501D01*
X157657834Y-83545967D01*
X157657830Y-83545965D01*
X157607413Y-83522455D01*
X157443663Y-83446097D01*
X157443659Y-83446096D01*
X157443655Y-83446094D01*
X157215413Y-83384938D01*
X157215403Y-83384936D01*
X156980001Y-83364341D01*
X156979999Y-83364341D01*
X156744596Y-83384936D01*
X156744586Y-83384938D01*
X156516344Y-83446094D01*
X156516335Y-83446098D01*
X156302171Y-83545964D01*
X156302169Y-83545965D01*
X156108597Y-83681505D01*
X155941505Y-83848597D01*
X155811575Y-84034158D01*
X155756998Y-84077783D01*
X155687500Y-84084977D01*
X155625145Y-84053454D01*
X155608425Y-84034158D01*
X155478494Y-83848597D01*
X155311402Y-83681506D01*
X155311395Y-83681501D01*
X155117834Y-83545967D01*
X155117830Y-83545965D01*
X155067413Y-83522455D01*
X154903663Y-83446097D01*
X154903659Y-83446096D01*
X154903655Y-83446094D01*
X154675413Y-83384938D01*
X154675403Y-83384936D01*
X154440001Y-83364341D01*
X154439999Y-83364341D01*
X154204596Y-83384936D01*
X154204586Y-83384938D01*
X153976344Y-83446094D01*
X153976335Y-83446098D01*
X153762171Y-83545964D01*
X153762169Y-83545965D01*
X153568597Y-83681505D01*
X153401505Y-83848597D01*
X153271575Y-84034158D01*
X153216998Y-84077783D01*
X153147500Y-84084977D01*
X153085145Y-84053454D01*
X153068425Y-84034158D01*
X152938494Y-83848597D01*
X152771402Y-83681506D01*
X152771395Y-83681501D01*
X152577834Y-83545967D01*
X152577830Y-83545965D01*
X152527413Y-83522455D01*
X152363663Y-83446097D01*
X152363659Y-83446096D01*
X152363655Y-83446094D01*
X152135413Y-83384938D01*
X152135403Y-83384936D01*
X151900001Y-83364341D01*
X151899999Y-83364341D01*
X151664596Y-83384936D01*
X151664586Y-83384938D01*
X151436344Y-83446094D01*
X151436335Y-83446098D01*
X151222171Y-83545964D01*
X151222169Y-83545965D01*
X151028597Y-83681505D01*
X150861505Y-83848597D01*
X150731575Y-84034158D01*
X150676998Y-84077783D01*
X150607500Y-84084977D01*
X150545145Y-84053454D01*
X150528425Y-84034158D01*
X150398494Y-83848597D01*
X150231402Y-83681506D01*
X150231395Y-83681501D01*
X150037834Y-83545967D01*
X150037830Y-83545965D01*
X149987413Y-83522455D01*
X149823663Y-83446097D01*
X149823659Y-83446096D01*
X149823655Y-83446094D01*
X149595413Y-83384938D01*
X149595403Y-83384936D01*
X149360001Y-83364341D01*
X149359999Y-83364341D01*
X149124596Y-83384936D01*
X149124586Y-83384938D01*
X148896344Y-83446094D01*
X148896335Y-83446098D01*
X148682171Y-83545964D01*
X148682169Y-83545965D01*
X148488597Y-83681505D01*
X148321505Y-83848597D01*
X148191575Y-84034158D01*
X148136998Y-84077783D01*
X148067500Y-84084977D01*
X148005145Y-84053454D01*
X147988425Y-84034158D01*
X147858494Y-83848597D01*
X147691402Y-83681506D01*
X147691395Y-83681501D01*
X147497834Y-83545967D01*
X147497830Y-83545965D01*
X147447413Y-83522455D01*
X147283663Y-83446097D01*
X147283659Y-83446096D01*
X147283655Y-83446094D01*
X147055413Y-83384938D01*
X147055403Y-83384936D01*
X146820001Y-83364341D01*
X146819999Y-83364341D01*
X146584596Y-83384936D01*
X146584586Y-83384938D01*
X146356344Y-83446094D01*
X146356335Y-83446098D01*
X146142171Y-83545964D01*
X146142169Y-83545965D01*
X145948597Y-83681505D01*
X145781505Y-83848597D01*
X145651575Y-84034158D01*
X145596998Y-84077783D01*
X145527500Y-84084977D01*
X145465145Y-84053454D01*
X145448425Y-84034158D01*
X145318494Y-83848597D01*
X145151402Y-83681506D01*
X145151395Y-83681501D01*
X144957834Y-83545967D01*
X144957830Y-83545965D01*
X144907413Y-83522455D01*
X144743663Y-83446097D01*
X144743659Y-83446096D01*
X144743655Y-83446094D01*
X144515413Y-83384938D01*
X144515403Y-83384936D01*
X144280001Y-83364341D01*
X144279999Y-83364341D01*
X144044596Y-83384936D01*
X144044586Y-83384938D01*
X143816344Y-83446094D01*
X143816335Y-83446098D01*
X143602171Y-83545964D01*
X143602169Y-83545965D01*
X143408597Y-83681505D01*
X143241505Y-83848597D01*
X143111575Y-84034158D01*
X143056998Y-84077783D01*
X142987500Y-84084977D01*
X142925145Y-84053454D01*
X142908425Y-84034158D01*
X142778494Y-83848597D01*
X142611402Y-83681506D01*
X142611395Y-83681501D01*
X142417834Y-83545967D01*
X142417830Y-83545965D01*
X142367413Y-83522455D01*
X142203663Y-83446097D01*
X142203659Y-83446096D01*
X142203655Y-83446094D01*
X141975413Y-83384938D01*
X141975403Y-83384936D01*
X141740001Y-83364341D01*
X141739999Y-83364341D01*
X141504596Y-83384936D01*
X141504586Y-83384938D01*
X141276344Y-83446094D01*
X141276335Y-83446098D01*
X141062171Y-83545964D01*
X141062169Y-83545965D01*
X140868597Y-83681505D01*
X140701505Y-83848597D01*
X140565965Y-84042169D01*
X140565964Y-84042171D01*
X140466098Y-84256335D01*
X140466094Y-84256344D01*
X140404938Y-84484586D01*
X140404936Y-84484596D01*
X140384341Y-84719999D01*
X137821992Y-84719999D01*
X137797246Y-84563757D01*
X137731557Y-84361588D01*
X137635051Y-84172184D01*
X137635049Y-84172181D01*
X137635048Y-84172179D01*
X137510109Y-84000213D01*
X137359786Y-83849890D01*
X137187820Y-83724951D01*
X136998414Y-83628444D01*
X136998413Y-83628443D01*
X136998412Y-83628443D01*
X136796243Y-83562754D01*
X136796241Y-83562753D01*
X136796240Y-83562753D01*
X136634957Y-83537208D01*
X136586287Y-83529500D01*
X136373713Y-83529500D01*
X136325042Y-83537208D01*
X136163760Y-83562753D01*
X135961585Y-83628444D01*
X135772179Y-83724951D01*
X135600213Y-83849890D01*
X135449890Y-84000213D01*
X135324951Y-84172179D01*
X135228444Y-84361585D01*
X135162753Y-84563760D01*
X135129500Y-84773713D01*
X133986929Y-84773713D01*
X133998271Y-84586201D01*
X134000076Y-84571340D01*
X134008201Y-84527007D01*
X134051780Y-84289197D01*
X134055364Y-84274663D01*
X134140696Y-84000822D01*
X134145998Y-83986841D01*
X134263731Y-83725249D01*
X134270676Y-83712016D01*
X134419080Y-83466526D01*
X134427567Y-83454230D01*
X134604480Y-83228417D01*
X134614395Y-83217226D01*
X134817226Y-83014395D01*
X134828417Y-83004480D01*
X135054230Y-82827567D01*
X135066526Y-82819080D01*
X135312016Y-82670676D01*
X135325249Y-82663731D01*
X135586841Y-82545998D01*
X135600822Y-82540696D01*
X135874668Y-82455362D01*
X135889197Y-82451780D01*
X136171344Y-82400075D01*
X136186201Y-82398271D01*
X136476264Y-82380726D01*
X136483751Y-82380500D01*
X136545892Y-82380500D01*
X184354108Y-82380500D01*
X184416249Y-82380500D01*
X184423736Y-82380726D01*
G37*
%TD.AperFunction*%
%TD*%
M02*
