%TF.GenerationSoftware,KiCad,Pcbnew,8.0.5*%
%TF.CreationDate,2024-10-22T14:41:14+03:00*%
%TF.ProjectId,FirstTrace,46697273-7454-4726-9163-652e6b696361,rev?*%
%TF.SameCoordinates,Original*%
%TF.FileFunction,Copper,L1,Top*%
%TF.FilePolarity,Positive*%
%FSLAX46Y46*%
G04 Gerber Fmt 4.6, Leading zero omitted, Abs format (unit mm)*
G04 Created by KiCad (PCBNEW 8.0.5) date 2024-10-22 14:41:14*
%MOMM*%
%LPD*%
G01*
G04 APERTURE LIST*
G04 Aperture macros list*
%AMRoundRect*
0 Rectangle with rounded corners*
0 $1 Rounding radius*
0 $2 $3 $4 $5 $6 $7 $8 $9 X,Y pos of 4 corners*
0 Add a 4 corners polygon primitive as box body*
4,1,4,$2,$3,$4,$5,$6,$7,$8,$9,$2,$3,0*
0 Add four circle primitives for the rounded corners*
1,1,$1+$1,$2,$3*
1,1,$1+$1,$4,$5*
1,1,$1+$1,$6,$7*
1,1,$1+$1,$8,$9*
0 Add four rect primitives between the rounded corners*
20,1,$1+$1,$2,$3,$4,$5,0*
20,1,$1+$1,$4,$5,$6,$7,0*
20,1,$1+$1,$6,$7,$8,$9,0*
20,1,$1+$1,$8,$9,$2,$3,0*%
G04 Aperture macros list end*
%TA.AperFunction,SMDPad,CuDef*%
%ADD10RoundRect,0.140000X-0.170000X0.140000X-0.170000X-0.140000X0.170000X-0.140000X0.170000X0.140000X0*%
%TD*%
%TA.AperFunction,SMDPad,CuDef*%
%ADD11R,0.800000X1.000000*%
%TD*%
%TA.AperFunction,SMDPad,CuDef*%
%ADD12R,1.500000X0.700000*%
%TD*%
%TA.AperFunction,ComponentPad*%
%ADD13R,1.700000X1.700000*%
%TD*%
%TA.AperFunction,ComponentPad*%
%ADD14O,1.700000X1.700000*%
%TD*%
%TA.AperFunction,SMDPad,CuDef*%
%ADD15RoundRect,0.375000X-0.375000X0.625000X-0.375000X-0.625000X0.375000X-0.625000X0.375000X0.625000X0*%
%TD*%
%TA.AperFunction,SMDPad,CuDef*%
%ADD16RoundRect,0.500000X-1.400000X0.500000X-1.400000X-0.500000X1.400000X-0.500000X1.400000X0.500000X0*%
%TD*%
%TA.AperFunction,SMDPad,CuDef*%
%ADD17R,1.200000X1.400000*%
%TD*%
%TA.AperFunction,SMDPad,CuDef*%
%ADD18RoundRect,0.250000X0.475000X-0.250000X0.475000X0.250000X-0.475000X0.250000X-0.475000X-0.250000X0*%
%TD*%
%TA.AperFunction,SMDPad,CuDef*%
%ADD19RoundRect,0.135000X-0.185000X0.135000X-0.185000X-0.135000X0.185000X-0.135000X0.185000X0.135000X0*%
%TD*%
%TA.AperFunction,SMDPad,CuDef*%
%ADD20RoundRect,0.218750X-0.256250X0.218750X-0.256250X-0.218750X0.256250X-0.218750X0.256250X0.218750X0*%
%TD*%
%TA.AperFunction,SMDPad,CuDef*%
%ADD21RoundRect,0.200000X0.200000X0.275000X-0.200000X0.275000X-0.200000X-0.275000X0.200000X-0.275000X0*%
%TD*%
%TA.AperFunction,SMDPad,CuDef*%
%ADD22RoundRect,0.150000X-0.512500X-0.150000X0.512500X-0.150000X0.512500X0.150000X-0.512500X0.150000X0*%
%TD*%
%TA.AperFunction,SMDPad,CuDef*%
%ADD23RoundRect,0.140000X0.140000X0.170000X-0.140000X0.170000X-0.140000X-0.170000X0.140000X-0.170000X0*%
%TD*%
%TA.AperFunction,SMDPad,CuDef*%
%ADD24R,1.380000X0.450000*%
%TD*%
%TA.AperFunction,SMDPad,CuDef*%
%ADD25R,1.300000X1.650000*%
%TD*%
%TA.AperFunction,SMDPad,CuDef*%
%ADD26R,1.550000X1.425000*%
%TD*%
%TA.AperFunction,SMDPad,CuDef*%
%ADD27R,1.900000X1.800000*%
%TD*%
%TA.AperFunction,SMDPad,CuDef*%
%ADD28R,1.900000X1.000000*%
%TD*%
%TA.AperFunction,SMDPad,CuDef*%
%ADD29RoundRect,0.075000X-0.662500X-0.075000X0.662500X-0.075000X0.662500X0.075000X-0.662500X0.075000X0*%
%TD*%
%TA.AperFunction,SMDPad,CuDef*%
%ADD30RoundRect,0.075000X-0.075000X-0.662500X0.075000X-0.662500X0.075000X0.662500X-0.075000X0.662500X0*%
%TD*%
%TA.AperFunction,SMDPad,CuDef*%
%ADD31RoundRect,0.140000X0.170000X-0.140000X0.170000X0.140000X-0.170000X0.140000X-0.170000X-0.140000X0*%
%TD*%
%TA.AperFunction,SMDPad,CuDef*%
%ADD32RoundRect,0.140000X-0.140000X-0.170000X0.140000X-0.170000X0.140000X0.170000X-0.140000X0.170000X0*%
%TD*%
%TA.AperFunction,SMDPad,CuDef*%
%ADD33RoundRect,0.225000X-0.225000X-0.250000X0.225000X-0.250000X0.225000X0.250000X-0.225000X0.250000X0*%
%TD*%
%TA.AperFunction,SMDPad,CuDef*%
%ADD34RoundRect,0.135000X0.185000X-0.135000X0.185000X0.135000X-0.185000X0.135000X-0.185000X-0.135000X0*%
%TD*%
%TA.AperFunction,SMDPad,CuDef*%
%ADD35RoundRect,0.250000X-0.250000X-0.475000X0.250000X-0.475000X0.250000X0.475000X-0.250000X0.475000X0*%
%TD*%
%TA.AperFunction,SMDPad,CuDef*%
%ADD36RoundRect,0.147500X0.147500X0.172500X-0.147500X0.172500X-0.147500X-0.172500X0.147500X-0.172500X0*%
%TD*%
%TA.AperFunction,ViaPad*%
%ADD37C,0.700000*%
%TD*%
%TA.AperFunction,Conductor*%
%ADD38C,0.200000*%
%TD*%
G04 APERTURE END LIST*
D10*
%TO.P,C1,1*%
%TO.N,+3.3V*%
X156580000Y-96840000D03*
%TO.P,C1,2*%
%TO.N,GND*%
X156580000Y-97800000D03*
%TD*%
D11*
%TO.P,SW1,*%
%TO.N,*%
X136965000Y-89580000D03*
X134755000Y-89580000D03*
X136965000Y-96880000D03*
X134755000Y-96880000D03*
D12*
%TO.P,SW1,1,A*%
%TO.N,GND*%
X137615000Y-90980000D03*
%TO.P,SW1,2,B*%
%TO.N,/SW_BOOT0*%
X137615000Y-93980000D03*
%TO.P,SW1,3,C*%
%TO.N,+3.3V*%
X137615000Y-95480000D03*
%TD*%
D13*
%TO.P,J3,1,Pin_1*%
%TO.N,+3.3V*%
X162060000Y-84720000D03*
D14*
%TO.P,J3,2,Pin_2*%
%TO.N,GND*%
X159520000Y-84720000D03*
%TO.P,J3,3,Pin_3*%
%TO.N,PB3*%
X156980000Y-84720000D03*
%TO.P,J3,4,Pin_4*%
%TO.N,PB4*%
X154440000Y-84720000D03*
%TO.P,J3,5,Pin_5*%
%TO.N,PB5*%
X151900000Y-84720000D03*
%TO.P,J3,6,Pin_6*%
%TO.N,PB6*%
X149360000Y-84720000D03*
%TO.P,J3,7,Pin_7*%
%TO.N,PB7*%
X146820000Y-84720000D03*
%TO.P,J3,8,Pin_8*%
%TO.N,PB8*%
X144280000Y-84720000D03*
%TO.P,J3,9,Pin_9*%
%TO.N,PB9*%
X141740000Y-84720000D03*
%TD*%
D15*
%TO.P,U3,1,GND*%
%TO.N,GND*%
X178930000Y-104890000D03*
%TO.P,U3,2,VO*%
%TO.N,+3.3V*%
X176630000Y-104890000D03*
D16*
X176630000Y-111190000D03*
D15*
%TO.P,U3,3,VI*%
%TO.N,VBUS*%
X174330000Y-104890000D03*
%TD*%
D17*
%TO.P,Y1,1,1*%
%TO.N,/HSE_IN*%
X150600000Y-98210000D03*
%TO.P,Y1,2,2*%
%TO.N,GND*%
X150600000Y-100410000D03*
%TO.P,Y1,3,3*%
%TO.N,/HSE_OUT*%
X152300000Y-100410000D03*
%TO.P,Y1,4,4*%
%TO.N,GND*%
X152300000Y-98210000D03*
%TD*%
D18*
%TO.P,C13,1*%
%TO.N,+3.3V*%
X181350000Y-108000000D03*
%TO.P,C13,2*%
%TO.N,GND*%
X181350000Y-106100000D03*
%TD*%
D19*
%TO.P,R2,1*%
%TO.N,+3.3V*%
X171840000Y-97250000D03*
%TO.P,R2,2*%
%TO.N,USB_D+*%
X171840000Y-98270000D03*
%TD*%
D20*
%TO.P,FB1,1*%
%TO.N,+3.3VA*%
X157790000Y-103672500D03*
%TO.P,FB1,2*%
%TO.N,+3.3V*%
X157790000Y-105247500D03*
%TD*%
D21*
%TO.P,R3,1*%
%TO.N,Net-(D1-K)*%
X166300000Y-109030000D03*
%TO.P,R3,2*%
%TO.N,GND*%
X164650000Y-109030000D03*
%TD*%
D22*
%TO.P,U2,1,I/O1*%
%TO.N,USB_D+*%
X173792500Y-98270000D03*
%TO.P,U2,2,GND*%
%TO.N,+5V*%
X173792500Y-99220000D03*
%TO.P,U2,3,I/O2*%
%TO.N,USB_D-*%
X173792500Y-100170000D03*
%TO.P,U2,4,I/O2*%
%TO.N,D-*%
X176067500Y-100170000D03*
%TO.P,U2,5,VBUS*%
%TO.N,GND*%
X176067500Y-99220000D03*
%TO.P,U2,6,I/O1*%
%TO.N,D+*%
X176067500Y-98270000D03*
%TD*%
D23*
%TO.P,C10,1*%
%TO.N,+3.3VA*%
X156400000Y-103670000D03*
%TO.P,C10,2*%
%TO.N,GND*%
X155440000Y-103670000D03*
%TD*%
D20*
%TO.P,D1,1,K*%
%TO.N,Net-(D1-K)*%
X167870000Y-109050000D03*
%TO.P,D1,2,A*%
%TO.N,+3.3V*%
X167870000Y-110625000D03*
%TD*%
D24*
%TO.P,J1,1,VBUS*%
%TO.N,VBUS*%
X181805000Y-100302500D03*
%TO.P,J1,2,D-*%
%TO.N,D-*%
X181805000Y-99652500D03*
%TO.P,J1,3,D+*%
%TO.N,D+*%
X181805000Y-99002500D03*
%TO.P,J1,4,ID*%
%TO.N,unconnected-(J1-ID-Pad4)*%
X181805000Y-98352500D03*
%TO.P,J1,5,GND*%
%TO.N,GND*%
X181805000Y-97702500D03*
D25*
%TO.P,J1,6,Shield*%
%TO.N,unconnected-(J1-Shield-Pad6)_2*%
X184465000Y-102377500D03*
D26*
X181890000Y-101490000D03*
D27*
X184465000Y-100152500D03*
D28*
X184465000Y-97452500D03*
D26*
X181890000Y-96515000D03*
D25*
X184465000Y-95627500D03*
%TD*%
D29*
%TO.P,U1,1,VBAT*%
%TO.N,+3.3V*%
X158197500Y-96810000D03*
%TO.P,U1,2,PC13*%
%TO.N,unconnected-(U1-PC13-Pad2)*%
X158197500Y-97310000D03*
%TO.P,U1,3,PC14*%
%TO.N,unconnected-(U1-PC14-Pad3)*%
X158197500Y-97810000D03*
%TO.P,U1,4,PC15*%
%TO.N,unconnected-(U1-PC15-Pad4)*%
X158197500Y-98310000D03*
%TO.P,U1,5,PD0*%
%TO.N,/HSE_IN*%
X158197500Y-98810000D03*
%TO.P,U1,6,PD1*%
%TO.N,/HSE_OUT*%
X158197500Y-99310000D03*
%TO.P,U1,7,NRST*%
%TO.N,/NRST*%
X158197500Y-99810000D03*
%TO.P,U1,8,VSSA*%
%TO.N,GND*%
X158197500Y-100310000D03*
%TO.P,U1,9,VDDA*%
%TO.N,+3.3VA*%
X158197500Y-100810000D03*
%TO.P,U1,10,PA0*%
%TO.N,unconnected-(U1-PA0-Pad10)*%
X158197500Y-101310000D03*
%TO.P,U1,11,PA1*%
%TO.N,unconnected-(U1-PA1-Pad11)*%
X158197500Y-101810000D03*
%TO.P,U1,12,PA2*%
%TO.N,unconnected-(U1-PA2-Pad12)*%
X158197500Y-102310000D03*
D30*
%TO.P,U1,13,PA3*%
%TO.N,PA3*%
X159610000Y-103722500D03*
%TO.P,U1,14,PA4*%
%TO.N,PA4*%
X160110000Y-103722500D03*
%TO.P,U1,15,PA5*%
%TO.N,PA5*%
X160610000Y-103722500D03*
%TO.P,U1,16,PA6*%
%TO.N,PA6*%
X161110000Y-103722500D03*
%TO.P,U1,17,PA7*%
%TO.N,PA7*%
X161610000Y-103722500D03*
%TO.P,U1,18,PB0*%
%TO.N,PB0*%
X162110000Y-103722500D03*
%TO.P,U1,19,PB1*%
%TO.N,PB1*%
X162610000Y-103722500D03*
%TO.P,U1,20,PB2*%
%TO.N,PB2*%
X163110000Y-103722500D03*
%TO.P,U1,21,PB10*%
%TO.N,PB10*%
X163610000Y-103722500D03*
%TO.P,U1,22,PB11*%
%TO.N,PB11*%
X164110000Y-103722500D03*
%TO.P,U1,23,VSS*%
%TO.N,GND*%
X164610000Y-103722500D03*
%TO.P,U1,24,VDD*%
%TO.N,+3.3V*%
X165110000Y-103722500D03*
D29*
%TO.P,U1,25,PB12*%
%TO.N,unconnected-(U1-PB12-Pad25)*%
X166522500Y-102310000D03*
%TO.P,U1,26,PB13*%
%TO.N,unconnected-(U1-PB13-Pad26)*%
X166522500Y-101810000D03*
%TO.P,U1,27,PB14*%
%TO.N,unconnected-(U1-PB14-Pad27)*%
X166522500Y-101310000D03*
%TO.P,U1,28,PB15*%
%TO.N,unconnected-(U1-PB15-Pad28)*%
X166522500Y-100810000D03*
%TO.P,U1,29,PA8*%
%TO.N,unconnected-(U1-PA8-Pad29)*%
X166522500Y-100310000D03*
%TO.P,U1,30,PA9*%
%TO.N,unconnected-(U1-PA9-Pad30)*%
X166522500Y-99810000D03*
%TO.P,U1,31,PA10*%
%TO.N,unconnected-(U1-PA10-Pad31)*%
X166522500Y-99310000D03*
%TO.P,U1,32,PA11*%
%TO.N,USB_D-*%
X166522500Y-98810000D03*
%TO.P,U1,33,PA12*%
%TO.N,USB_D+*%
X166522500Y-98310000D03*
%TO.P,U1,34,PA13*%
%TO.N,SWDIO*%
X166522500Y-97810000D03*
%TO.P,U1,35,VSS*%
%TO.N,GND*%
X166522500Y-97310000D03*
%TO.P,U1,36,VDD*%
%TO.N,+3.3V*%
X166522500Y-96810000D03*
D30*
%TO.P,U1,37,PA14*%
%TO.N,SWCLK*%
X165110000Y-95397500D03*
%TO.P,U1,38,PA15*%
%TO.N,unconnected-(U1-PA15-Pad38)*%
X164610000Y-95397500D03*
%TO.P,U1,39,PB3*%
%TO.N,PB3*%
X164110000Y-95397500D03*
%TO.P,U1,40,PB4*%
%TO.N,PB4*%
X163610000Y-95397500D03*
%TO.P,U1,41,PB5*%
%TO.N,PB5*%
X163110000Y-95397500D03*
%TO.P,U1,42,PB6*%
%TO.N,PB6*%
X162610000Y-95397500D03*
%TO.P,U1,43,PB7*%
%TO.N,PB7*%
X162110000Y-95397500D03*
%TO.P,U1,44,BOOT0*%
%TO.N,/BOOT0*%
X161610000Y-95397500D03*
%TO.P,U1,45,PB8*%
%TO.N,PB8*%
X161110000Y-95397500D03*
%TO.P,U1,46,PB9*%
%TO.N,PB9*%
X160610000Y-95397500D03*
%TO.P,U1,47,VSS*%
%TO.N,GND*%
X160110000Y-95397500D03*
%TO.P,U1,48,VDD*%
%TO.N,+3.3V*%
X159610000Y-95397500D03*
%TD*%
D23*
%TO.P,C11,1*%
%TO.N,+3.3V*%
X156400000Y-105240000D03*
%TO.P,C11,2*%
%TO.N,GND*%
X155440000Y-105240000D03*
%TD*%
D13*
%TO.P,J4,1,Pin_1*%
%TO.N,+3.3V*%
X179350000Y-114980000D03*
D14*
%TO.P,J4,2,Pin_2*%
%TO.N,GND*%
X176810000Y-114980000D03*
%TO.P,J4,3,Pin_3*%
%TO.N,PB11*%
X174270000Y-114980000D03*
%TO.P,J4,4,Pin_4*%
%TO.N,PB10*%
X171730000Y-114980000D03*
%TD*%
D31*
%TO.P,C7,1*%
%TO.N,/HSE_IN*%
X154080000Y-98850000D03*
%TO.P,C7,2*%
%TO.N,GND*%
X154080000Y-97890000D03*
%TD*%
D10*
%TO.P,C3,1*%
%TO.N,+3.3V*%
X168120000Y-96370000D03*
%TO.P,C3,2*%
%TO.N,GND*%
X168120000Y-97330000D03*
%TD*%
D32*
%TO.P,C4,1*%
%TO.N,+3.3V*%
X159160000Y-93800000D03*
%TO.P,C4,2*%
%TO.N,GND*%
X160120000Y-93800000D03*
%TD*%
D33*
%TO.P,C5,1*%
%TO.N,+3.3V*%
X158560000Y-92430000D03*
%TO.P,C5,2*%
%TO.N,GND*%
X160110000Y-92430000D03*
%TD*%
D10*
%TO.P,C8,1*%
%TO.N,/HSE_OUT*%
X154110000Y-99800000D03*
%TO.P,C8,2*%
%TO.N,GND*%
X154110000Y-100760000D03*
%TD*%
D34*
%TO.P,R1,1*%
%TO.N,/SW_BOOT0*%
X140770000Y-93980000D03*
%TO.P,R1,2*%
%TO.N,/BOOT0*%
X140770000Y-92960000D03*
%TD*%
D31*
%TO.P,C9,1*%
%TO.N,+3.3VA*%
X156610000Y-101560000D03*
%TO.P,C9,2*%
%TO.N,GND*%
X156610000Y-100600000D03*
%TD*%
D35*
%TO.P,C12,1*%
%TO.N,VBUS*%
X176190000Y-102410000D03*
%TO.P,C12,2*%
%TO.N,GND*%
X178090000Y-102410000D03*
%TD*%
D13*
%TO.P,J2,1,Pin_1*%
%TO.N,+3.3V*%
X179350000Y-84730000D03*
D14*
%TO.P,J2,2,Pin_2*%
%TO.N,GND*%
X176810000Y-84730000D03*
%TO.P,J2,3,Pin_3*%
%TO.N,SWDIO*%
X174270000Y-84730000D03*
%TO.P,J2,4,Pin_4*%
%TO.N,SWCLK*%
X171730000Y-84730000D03*
%TD*%
D10*
%TO.P,C6,1*%
%TO.N,/NRST*%
X155380000Y-100580000D03*
%TO.P,C6,2*%
%TO.N,GND*%
X155380000Y-101540000D03*
%TD*%
D36*
%TO.P,F1,1*%
%TO.N,VBUS*%
X180010000Y-100490000D03*
%TO.P,F1,2*%
%TO.N,+5V*%
X179040000Y-100490000D03*
%TD*%
D13*
%TO.P,J5,1,Pin_1*%
%TO.N,+3.3V*%
X164610000Y-114830000D03*
D14*
%TO.P,J5,2,Pin_2*%
%TO.N,GND*%
X162070000Y-114830000D03*
%TO.P,J5,3,Pin_3*%
%TO.N,PB2*%
X159530000Y-114830000D03*
%TO.P,J5,4,Pin_4*%
%TO.N,PB1*%
X156990000Y-114830000D03*
%TO.P,J5,5,Pin_5*%
%TO.N,PB0*%
X154450000Y-114830000D03*
%TO.P,J5,6,Pin_6*%
%TO.N,PA7*%
X151910000Y-114830000D03*
%TO.P,J5,7,Pin_7*%
%TO.N,PA6*%
X149370000Y-114830000D03*
%TO.P,J5,8,Pin_8*%
%TO.N,PA5*%
X146830000Y-114830000D03*
%TO.P,J5,9,Pin_9*%
%TO.N,PA4*%
X144290000Y-114830000D03*
%TO.P,J5,10,Pin_10*%
%TO.N,PA3*%
X141750000Y-114830000D03*
%TD*%
D23*
%TO.P,C2,1*%
%TO.N,+3.3V*%
X165800000Y-105260000D03*
%TO.P,C2,2*%
%TO.N,GND*%
X164840000Y-105260000D03*
%TD*%
D37*
%TO.N,GND*%
X179440000Y-106400000D03*
X179360000Y-102770000D03*
X180020000Y-97680000D03*
X153580000Y-102810000D03*
X179340000Y-102040000D03*
X163340000Y-109020000D03*
X152310000Y-96540000D03*
X164930000Y-97320000D03*
X177440380Y-99209620D03*
X154110000Y-101780000D03*
X155430000Y-97800000D03*
X164590000Y-102240000D03*
X150630000Y-102050000D03*
X139250000Y-90970000D03*
X178660000Y-106410000D03*
X182880000Y-106110000D03*
X155430000Y-106310000D03*
X159670000Y-100300000D03*
X160370000Y-96880000D03*
X155860000Y-102560000D03*
X154070000Y-96820000D03*
%TO.N,/BOOT0*%
X141980000Y-92770000D03*
X156820000Y-91640000D03*
X156990000Y-93170000D03*
X143280000Y-91490000D03*
%TO.N,+5V*%
X171810000Y-99270000D03*
X171820000Y-100820000D03*
%TD*%
D38*
%TO.N,+3.3V*%
X139760000Y-116990000D02*
X139400000Y-116630000D01*
X172740000Y-111670000D02*
X172740000Y-112240000D01*
X174715685Y-86880000D02*
X181050000Y-86880000D01*
X167600000Y-96370000D02*
X167560000Y-96410000D01*
X142630000Y-94170000D02*
X142630000Y-93470000D01*
X159420000Y-94290000D02*
X159310000Y-94290000D01*
X181780000Y-116420000D02*
X181210000Y-116990000D01*
X167720000Y-116990000D02*
X164580000Y-116990000D01*
X155970000Y-96840000D02*
X155030000Y-95900000D01*
X156840000Y-107620000D02*
X140830000Y-107620000D01*
X171230000Y-97250000D02*
X170350000Y-96370000D01*
X167872843Y-89242843D02*
X171542843Y-89242843D01*
X142950000Y-94170000D02*
X142630000Y-94170000D01*
X167560000Y-96600000D02*
X167350000Y-96810000D01*
X139780000Y-82480000D02*
X162020000Y-82480000D01*
X171840000Y-96790000D02*
X170470000Y-95420000D01*
X139240000Y-83020000D02*
X139780000Y-82480000D01*
X179350000Y-82670000D02*
X179350000Y-84730000D01*
X181350000Y-112930000D02*
X181610000Y-112930000D01*
X166100000Y-106370000D02*
X172340000Y-106370000D01*
X158850000Y-92290000D02*
X143810000Y-92290000D01*
X168170000Y-116990000D02*
X167890000Y-116990000D01*
X140690000Y-95990000D02*
X140180000Y-95480000D01*
X165800000Y-105260000D02*
X165800000Y-106070000D01*
X167890000Y-116990000D02*
X167720000Y-116990000D01*
X166850000Y-95420000D02*
X166370000Y-94940000D01*
X174435685Y-87160000D02*
X174715685Y-86880000D01*
X181350000Y-112510000D02*
X181350000Y-112770000D01*
X172790000Y-87995686D02*
X172790000Y-87180000D01*
X179340000Y-116990000D02*
X168170000Y-116990000D01*
X171840000Y-97250000D02*
X171840000Y-96790000D01*
X181490000Y-82630000D02*
X181340000Y-82480000D01*
X165800000Y-106070000D02*
X166100000Y-106370000D01*
X171542843Y-89242843D02*
X172790000Y-87995686D01*
X172810000Y-87160000D02*
X174435685Y-87160000D01*
X140180000Y-95480000D02*
X139390000Y-95480000D01*
X165110000Y-104593866D02*
X165336134Y-104820000D01*
X162020000Y-82480000D02*
X179380000Y-82480000D01*
X154330000Y-92830000D02*
X144290000Y-92830000D01*
X170470000Y-95420000D02*
X166850000Y-95420000D01*
X144290000Y-92830000D02*
X142950000Y-94170000D01*
X162060000Y-84720000D02*
X162060000Y-82520000D01*
X181050000Y-86880000D02*
X181490000Y-86440000D01*
X165740000Y-104820000D02*
X165800000Y-104880000D01*
X158167500Y-96840000D02*
X158197500Y-96810000D01*
X167560000Y-96410000D02*
X167560000Y-96600000D01*
X164610000Y-116860000D02*
X164610000Y-114830000D01*
X155030000Y-93530000D02*
X154330000Y-92830000D01*
X181210000Y-116990000D02*
X179340000Y-116990000D01*
X172730000Y-106760000D02*
X172730000Y-111660000D01*
X179380000Y-82640000D02*
X179350000Y-82670000D01*
X172340000Y-106370000D02*
X172730000Y-106760000D01*
X170350000Y-96370000D02*
X168120000Y-96370000D01*
X173010000Y-112510000D02*
X174395686Y-112510000D01*
X159160000Y-93800000D02*
X159160000Y-93350000D01*
X139400000Y-116630000D02*
X139400000Y-106190000D01*
X181490000Y-86440000D02*
X181490000Y-82630000D01*
X156580000Y-96840000D02*
X155970000Y-96840000D01*
X159310000Y-94290000D02*
X159160000Y-94140000D01*
X140810000Y-95990000D02*
X140690000Y-95990000D01*
X140830000Y-107620000D02*
X139400000Y-106190000D01*
X139400000Y-97400000D02*
X140810000Y-95990000D01*
X164580000Y-116990000D02*
X139760000Y-116990000D01*
X162060000Y-82520000D02*
X162020000Y-82480000D01*
X156400000Y-105240000D02*
X157782500Y-105240000D01*
X157790000Y-105247500D02*
X157790000Y-106670000D01*
X181340000Y-82480000D02*
X179380000Y-82480000D01*
X181350000Y-112770000D02*
X181350000Y-112930000D01*
X168120000Y-96370000D02*
X167600000Y-96370000D01*
X142630000Y-94170000D02*
X140810000Y-95990000D01*
X142630000Y-89890000D02*
X141680000Y-88940000D01*
X155030000Y-95900000D02*
X155030000Y-93530000D01*
X159610000Y-95397500D02*
X159610000Y-94480000D01*
X172740000Y-112240000D02*
X173010000Y-112510000D01*
X157782500Y-105240000D02*
X157790000Y-105247500D01*
X165800000Y-104880000D02*
X165800000Y-105260000D01*
X156580000Y-96840000D02*
X158167500Y-96840000D01*
X164580000Y-116890000D02*
X164610000Y-116860000D01*
X167350000Y-96810000D02*
X166522500Y-96810000D01*
X137615000Y-95480000D02*
X139390000Y-95480000D01*
X179350000Y-114980000D02*
X179350000Y-116980000D01*
X157790000Y-106670000D02*
X156840000Y-107620000D01*
X139240000Y-88940000D02*
X139240000Y-83020000D01*
X165110000Y-103722500D02*
X165110000Y-104593866D01*
X139400000Y-106190000D02*
X139400000Y-97400000D01*
X167870000Y-110625000D02*
X167870000Y-116970000D01*
X142630000Y-93470000D02*
X142630000Y-89890000D01*
X174395686Y-112510000D02*
X174815686Y-112930000D01*
X181780000Y-113100000D02*
X181780000Y-116420000D01*
X181610000Y-112930000D02*
X181780000Y-113100000D01*
X166370000Y-90745686D02*
X167872843Y-89242843D01*
X158560000Y-92750000D02*
X158560000Y-92430000D01*
X159160000Y-93350000D02*
X158560000Y-92750000D01*
X171840000Y-97250000D02*
X171230000Y-97250000D01*
X172730000Y-111660000D02*
X172740000Y-111670000D01*
X172790000Y-87180000D02*
X172810000Y-87160000D01*
X165336134Y-104820000D02*
X165740000Y-104820000D01*
X181350000Y-108000000D02*
X181350000Y-112510000D01*
X159610000Y-94480000D02*
X159420000Y-94290000D01*
X179350000Y-116980000D02*
X179340000Y-116990000D01*
X174815686Y-112930000D02*
X181350000Y-112930000D01*
X141680000Y-88940000D02*
X139240000Y-88940000D01*
X167870000Y-116970000D02*
X167890000Y-116990000D01*
X179380000Y-82480000D02*
X179380000Y-82640000D01*
X164580000Y-116990000D02*
X164580000Y-116890000D01*
X166370000Y-94940000D02*
X166370000Y-90745686D01*
X143810000Y-92290000D02*
X142630000Y-93470000D01*
X159160000Y-94140000D02*
X159160000Y-93800000D01*
%TO.N,GND*%
X150610000Y-101810000D02*
X150610000Y-102030000D01*
X137615000Y-90980000D02*
X139240000Y-90980000D01*
X155440000Y-102830000D02*
X155430000Y-102820000D01*
X155440000Y-106300000D02*
X155430000Y-106310000D01*
X154080000Y-97890000D02*
X154080000Y-97080000D01*
X150600000Y-100410000D02*
X150600000Y-101800000D01*
X155380000Y-102040000D02*
X155120000Y-102300000D01*
X152300000Y-96550000D02*
X152310000Y-96540000D01*
X160110000Y-95397500D02*
X160110000Y-93810000D01*
X154110000Y-100760000D02*
X154110000Y-101780000D01*
X180042500Y-97702500D02*
X180020000Y-97680000D01*
X164610000Y-103722500D02*
X164610000Y-104730000D01*
X160120000Y-93800000D02*
X160120000Y-93280000D01*
X154070000Y-97070000D02*
X154070000Y-96820000D01*
X163350000Y-109030000D02*
X163340000Y-109020000D01*
X168120000Y-97330000D02*
X166542500Y-97330000D01*
X155440000Y-105240000D02*
X155440000Y-106300000D01*
X156940000Y-100600000D02*
X157230000Y-100310000D01*
X176067500Y-99220000D02*
X177430000Y-99220000D01*
X160110000Y-93810000D02*
X160120000Y-93800000D01*
X150600000Y-101800000D02*
X150610000Y-101810000D01*
X164610000Y-102260000D02*
X164590000Y-102240000D01*
X164840000Y-104960000D02*
X164840000Y-105260000D01*
X152300000Y-98210000D02*
X152300000Y-96690000D01*
X155610000Y-97800000D02*
X155430000Y-97800000D01*
X155120000Y-102300000D02*
X154980000Y-102440000D01*
X164940000Y-97310000D02*
X164930000Y-97320000D01*
X156580000Y-97800000D02*
X155610000Y-97800000D01*
X153830000Y-102810000D02*
X153580000Y-102810000D01*
X154200000Y-102440000D02*
X153830000Y-102810000D01*
X155380000Y-101540000D02*
X155380000Y-102040000D01*
X166522500Y-97310000D02*
X164940000Y-97310000D01*
X157230000Y-100310000D02*
X158197500Y-100310000D01*
X164610000Y-103722500D02*
X164610000Y-102260000D01*
X139240000Y-90980000D02*
X139250000Y-90970000D01*
X154980000Y-102440000D02*
X154200000Y-102440000D01*
X177430000Y-99220000D02*
X177440380Y-99209620D01*
X164620000Y-103732500D02*
X164610000Y-103722500D01*
X164610000Y-104730000D02*
X164840000Y-104960000D01*
X160110000Y-96620000D02*
X160370000Y-96880000D01*
X150610000Y-102030000D02*
X150630000Y-102050000D01*
X166542500Y-97330000D02*
X166522500Y-97310000D01*
X155440000Y-103670000D02*
X155440000Y-102830000D01*
X155430000Y-102820000D02*
X155690000Y-102560000D01*
X154080000Y-97080000D02*
X154070000Y-97070000D01*
X158197500Y-100310000D02*
X159660000Y-100310000D01*
X164650000Y-109030000D02*
X163350000Y-109030000D01*
X155690000Y-102560000D02*
X155860000Y-102560000D01*
X152300000Y-96690000D02*
X152300000Y-96550000D01*
X160110000Y-95397500D02*
X160110000Y-96620000D01*
X156610000Y-100600000D02*
X156940000Y-100600000D01*
X160120000Y-93280000D02*
X160110000Y-93270000D01*
X159660000Y-100310000D02*
X159670000Y-100300000D01*
X160110000Y-93270000D02*
X160110000Y-92430000D01*
X181805000Y-97702500D02*
X180042500Y-97702500D01*
%TO.N,/NRST*%
X155550000Y-99810000D02*
X155380000Y-99980000D01*
X158197500Y-99810000D02*
X155550000Y-99810000D01*
X155380000Y-99980000D02*
X155380000Y-100580000D01*
%TO.N,/HSE_IN*%
X151260000Y-99290000D02*
X151260000Y-98870000D01*
X154080000Y-98850000D02*
X153230000Y-98850000D01*
X153230000Y-98850000D02*
X153230000Y-99180000D01*
X158197500Y-98810000D02*
X154120000Y-98810000D01*
X154120000Y-98810000D02*
X154080000Y-98850000D01*
X151260000Y-98870000D02*
X150600000Y-98210000D01*
X153120000Y-99290000D02*
X151260000Y-99290000D01*
X153230000Y-99180000D02*
X153120000Y-99290000D01*
%TO.N,/HSE_OUT*%
X154670000Y-99800000D02*
X154110000Y-99800000D01*
X153160000Y-100410000D02*
X152300000Y-100410000D01*
X153180000Y-100430000D02*
X153160000Y-100410000D01*
X154110000Y-99800000D02*
X153350000Y-99800000D01*
X158197500Y-99310000D02*
X155160000Y-99310000D01*
X153290000Y-99860000D02*
X153290000Y-100320000D01*
X153290000Y-100320000D02*
X153180000Y-100430000D01*
X155160000Y-99310000D02*
X154670000Y-99800000D01*
X153350000Y-99800000D02*
X153290000Y-99860000D01*
%TO.N,+3.3VA*%
X156610000Y-101560000D02*
X157010000Y-101560000D01*
X157427590Y-100810000D02*
X158197500Y-100810000D01*
X156610000Y-102910000D02*
X156610000Y-101560000D01*
X156400000Y-103120000D02*
X156610000Y-102910000D01*
X156400000Y-103670000D02*
X156400000Y-103120000D01*
X157010000Y-101560000D02*
X157160000Y-101410000D01*
X157160000Y-101077590D02*
X157427590Y-100810000D01*
X156400000Y-103670000D02*
X157787500Y-103670000D01*
X157160000Y-101410000D02*
X157160000Y-101077590D01*
X157787500Y-103670000D02*
X157790000Y-103672500D01*
%TO.N,VBUS*%
X179990000Y-101120000D02*
X179870000Y-101240000D01*
X174330000Y-102630000D02*
X174330000Y-104890000D01*
X181805000Y-100302500D02*
X180727500Y-100302500D01*
X180010000Y-101090000D02*
X179990000Y-101110000D01*
X179990000Y-101110000D02*
X179990000Y-101120000D01*
X177195686Y-101480000D02*
X176350000Y-101480000D01*
X176190000Y-101640000D02*
X176190000Y-102410000D01*
X176190000Y-102410000D02*
X174550000Y-102410000D01*
X180540000Y-100490000D02*
X180010000Y-100490000D01*
X180727500Y-100302500D02*
X180540000Y-100490000D01*
X177435686Y-101240000D02*
X177195686Y-101480000D01*
X180010000Y-100490000D02*
X180010000Y-101090000D01*
X179870000Y-101240000D02*
X177435686Y-101240000D01*
X174550000Y-102410000D02*
X174330000Y-102630000D01*
X176350000Y-101480000D02*
X176190000Y-101640000D01*
%TO.N,Net-(D1-K)*%
X167850000Y-109030000D02*
X167870000Y-109050000D01*
X166320000Y-109050000D02*
X166300000Y-109030000D01*
X166300000Y-109030000D02*
X167850000Y-109030000D01*
%TO.N,D-*%
X176067500Y-100170000D02*
X177600000Y-100170000D01*
X177600000Y-100170000D02*
X178117500Y-99652500D01*
X178117500Y-99652500D02*
X181805000Y-99652500D01*
%TO.N,D+*%
X176067500Y-98270000D02*
X177420000Y-98270000D01*
X178152500Y-99002500D02*
X181805000Y-99002500D01*
X177420000Y-98270000D02*
X178152500Y-99002500D01*
%TO.N,SWDIO*%
X165270000Y-97970000D02*
X164090000Y-97970000D01*
X166522500Y-97810000D02*
X165430000Y-97810000D01*
X164090000Y-97970000D02*
X164050000Y-97930000D01*
X172390000Y-86980000D02*
X172610000Y-86760000D01*
X164100000Y-96650000D02*
X165300000Y-96650000D01*
X165970000Y-95980000D02*
X165970000Y-90580000D01*
X165300000Y-96650000D02*
X165970000Y-95980000D01*
X171390000Y-88830000D02*
X172390000Y-87830000D01*
X172390000Y-87830000D02*
X172390000Y-86980000D01*
X167720000Y-88830000D02*
X171350000Y-88830000D01*
X165430000Y-97810000D02*
X165270000Y-97970000D01*
X164050000Y-97930000D02*
X164050000Y-96700000D01*
X172610000Y-86760000D02*
X174270000Y-86760000D01*
X174270000Y-86760000D02*
X174270000Y-84730000D01*
X164050000Y-96700000D02*
X164100000Y-96650000D01*
X165970000Y-90580000D02*
X167720000Y-88830000D01*
%TO.N,SWCLK*%
X171710000Y-84750000D02*
X171730000Y-84730000D01*
X171710000Y-87650000D02*
X171710000Y-84750000D01*
X165110000Y-95397500D02*
X165110000Y-90250000D01*
X171140000Y-88220000D02*
X171710000Y-87650000D01*
X165110000Y-90250000D02*
X167140000Y-88220000D01*
X167140000Y-88220000D02*
X171140000Y-88220000D01*
%TO.N,PB2*%
X159530000Y-110102744D02*
X159530000Y-114830000D01*
X163110000Y-106522744D02*
X159530000Y-110102744D01*
X163110000Y-103722500D02*
X163110000Y-106522744D01*
%TO.N,PB7*%
X162110000Y-95397500D02*
X162110000Y-93877506D01*
X162780000Y-93207506D02*
X162780000Y-90732942D01*
X161427058Y-89400000D02*
X147180000Y-89400000D01*
X162780000Y-90732942D02*
X161427058Y-89380000D01*
X146810000Y-84730000D02*
X146820000Y-84720000D01*
X162110000Y-93877506D02*
X162780000Y-93207506D01*
X147180000Y-89400000D02*
X146810000Y-89030000D01*
X146810000Y-89030000D02*
X146810000Y-84730000D01*
%TO.N,PB1*%
X162610000Y-106457058D02*
X158167058Y-110900000D01*
X156990000Y-111200000D02*
X156990000Y-114830000D01*
X158167058Y-110900000D02*
X157290000Y-110900000D01*
X157290000Y-110900000D02*
X156990000Y-111200000D01*
X162610000Y-103722500D02*
X162610000Y-106457058D01*
%TO.N,PB8*%
X161110001Y-94311820D02*
X161110001Y-93746134D01*
X161110001Y-93746134D02*
X161273068Y-93583068D01*
X145120000Y-90180000D02*
X144280000Y-89340000D01*
X161095686Y-90180000D02*
X145120000Y-90180000D01*
X144280000Y-89340000D02*
X144280000Y-84720000D01*
X161980000Y-91064314D02*
X161095686Y-90180000D01*
X161273068Y-93583068D02*
X161980000Y-92876136D01*
X161110000Y-94311820D02*
X161110001Y-94311820D01*
X161110000Y-95397500D02*
X161120000Y-95387500D01*
X161980000Y-92876136D02*
X161980000Y-91064314D01*
X161110000Y-95397500D02*
X161110000Y-94311820D01*
%TO.N,PB9*%
X141740000Y-88110000D02*
X141740000Y-84720000D01*
X144210000Y-90580000D02*
X141740000Y-88110000D01*
X160610000Y-95397500D02*
X160610000Y-94246135D01*
X160930000Y-90580000D02*
X144210000Y-90580000D01*
X160610000Y-94246135D02*
X160710001Y-94146134D01*
X161580000Y-91230000D02*
X160930000Y-90580000D01*
X161580000Y-92710450D02*
X161580000Y-91230000D01*
X160710001Y-94146134D02*
X160710000Y-93911819D01*
X160710000Y-93580450D02*
X161580000Y-92710450D01*
X160710000Y-93911819D02*
X160710000Y-93580450D01*
%TO.N,PB11*%
X164110000Y-106490000D02*
X164590000Y-106970000D01*
X164110000Y-103722500D02*
X164110000Y-106490000D01*
X171730000Y-106970000D02*
X171970000Y-107210000D01*
X164590000Y-106970000D02*
X171730000Y-106970000D01*
X171970000Y-112450000D02*
X172430000Y-112910000D01*
X171970000Y-107210000D02*
X171970000Y-112450000D01*
X174270000Y-112950000D02*
X174270000Y-114980000D01*
X172430000Y-112910000D02*
X174230000Y-112910000D01*
X174230000Y-112910000D02*
X174270000Y-112950000D01*
%TO.N,PB4*%
X163980000Y-90235884D02*
X161924116Y-88180000D01*
X154440000Y-87750000D02*
X154440000Y-84720000D01*
X163980000Y-93704564D02*
X163980000Y-90235884D01*
X163610000Y-94074564D02*
X163980000Y-93704564D01*
X161924116Y-88180000D02*
X154870000Y-88180000D01*
X154870000Y-88180000D02*
X154440000Y-87750000D01*
X163610000Y-95397500D02*
X163610000Y-94074564D01*
%TO.N,PB6*%
X149360000Y-88400000D02*
X149360000Y-84720000D01*
X162610000Y-95397500D02*
X162610000Y-93943192D01*
X163180000Y-93373192D02*
X163180000Y-90567256D01*
X162610000Y-93943192D02*
X163180000Y-93373192D01*
X149940000Y-88980000D02*
X149360000Y-88400000D01*
X163180000Y-90567256D02*
X161592744Y-88980000D01*
X161592744Y-88980000D02*
X149940000Y-88980000D01*
%TO.N,PB0*%
X158001372Y-110500000D02*
X155000000Y-110500000D01*
X154450000Y-111050000D02*
X154450000Y-114830000D01*
X162110000Y-106391372D02*
X158001372Y-110500000D01*
X155000000Y-110500000D02*
X154450000Y-111050000D01*
X162110000Y-103722500D02*
X162110000Y-106391372D01*
%TO.N,PB5*%
X163580000Y-90401570D02*
X161758430Y-88580000D01*
X152420000Y-88580000D02*
X151900000Y-88060000D01*
X163110000Y-95397500D02*
X163110000Y-94008878D01*
X163110000Y-94008878D02*
X163580000Y-93538878D01*
X151900000Y-88060000D02*
X151900000Y-84720000D01*
X161758430Y-88580000D02*
X152420000Y-88580000D01*
X163580000Y-93538878D02*
X163580000Y-90401570D01*
%TO.N,PB3*%
X162089802Y-87780000D02*
X157220000Y-87780000D01*
X164110000Y-94140250D02*
X164380000Y-93870250D01*
X164110000Y-95397500D02*
X164110000Y-94140250D01*
X164380000Y-90070198D02*
X162089802Y-87780000D01*
X156980000Y-87540000D02*
X156980000Y-84720000D01*
X157220000Y-87780000D02*
X156980000Y-87540000D01*
X164380000Y-93870250D02*
X164380000Y-90070198D01*
%TO.N,PB10*%
X171730000Y-113080000D02*
X171730000Y-114980000D01*
X171564314Y-112914314D02*
X171564314Y-107634314D01*
X171300000Y-107370000D02*
X164424314Y-107370000D01*
X163610000Y-106555686D02*
X164424314Y-107370000D01*
X171564314Y-112914314D02*
X171730000Y-113080000D01*
X163610000Y-103722500D02*
X163610000Y-106555686D01*
X171564314Y-107634314D02*
X171300000Y-107370000D01*
%TO.N,PA4*%
X160110000Y-106125686D02*
X157335686Y-108900000D01*
X157335686Y-108900000D02*
X144830000Y-108900000D01*
X144830000Y-108900000D02*
X144290000Y-109440000D01*
X160110000Y-103722500D02*
X160110000Y-106125686D01*
X144290000Y-109440000D02*
X144290000Y-114830000D01*
%TO.N,PA6*%
X149890000Y-109700000D02*
X149370000Y-110220000D01*
X157667058Y-109700000D02*
X149890000Y-109700000D01*
X157807058Y-109560000D02*
X157667058Y-109700000D01*
X161110000Y-106260000D02*
X157810000Y-109560000D01*
X149370000Y-110220000D02*
X149370000Y-114830000D01*
X161110000Y-103722500D02*
X161110000Y-106260000D01*
X157810000Y-109560000D02*
X157807058Y-109560000D01*
%TO.N,PA7*%
X161610000Y-103722500D02*
X161610000Y-106325686D01*
X152400000Y-110100000D02*
X151910000Y-110590000D01*
X161610000Y-106325686D02*
X157835686Y-110100000D01*
X157835686Y-110100000D02*
X152400000Y-110100000D01*
X151910000Y-110590000D02*
X151910000Y-114830000D01*
%TO.N,PA3*%
X142290000Y-108500000D02*
X141740000Y-109050000D01*
X159610000Y-103722500D02*
X159610000Y-106060000D01*
X159610000Y-106060000D02*
X157170000Y-108500000D01*
X141750000Y-109060000D02*
X141750000Y-114830000D01*
X157170000Y-108500000D02*
X142290000Y-108500000D01*
X141740000Y-109050000D02*
X141750000Y-109060000D01*
%TO.N,PA5*%
X147590000Y-109300000D02*
X146830000Y-110060000D01*
X146830000Y-110060000D02*
X146830000Y-114830000D01*
X157501372Y-109300000D02*
X147590000Y-109300000D01*
X160610000Y-103722500D02*
X160610000Y-106191372D01*
X160610000Y-106191372D02*
X157501372Y-109300000D01*
%TO.N,/BOOT0*%
X161610000Y-96850000D02*
X160820000Y-97640000D01*
X141760000Y-92960000D02*
X140770000Y-92960000D01*
X143640000Y-91120000D02*
X143230000Y-91530000D01*
X158830000Y-96172590D02*
X158830000Y-94600000D01*
X159500000Y-97640000D02*
X159500000Y-96842590D01*
X141860000Y-92940000D02*
X141780000Y-92940000D01*
X158830000Y-94600000D02*
X158420000Y-94600000D01*
X159500000Y-96842590D02*
X158830000Y-96172590D01*
X156270000Y-91120000D02*
X143640000Y-91120000D01*
X156820000Y-91670000D02*
X156820000Y-91640000D01*
X161610000Y-95397500D02*
X161610000Y-96850000D01*
X156840000Y-91690000D02*
X156820000Y-91670000D01*
X156840000Y-91690000D02*
X156270000Y-91120000D01*
X158420000Y-94600000D02*
X156990000Y-93170000D01*
X143230000Y-91530000D02*
X143270000Y-91490000D01*
X143270000Y-91490000D02*
X143280000Y-91490000D01*
X160820000Y-97640000D02*
X159500000Y-97640000D01*
X142030000Y-92770000D02*
X141860000Y-92940000D01*
X141780000Y-92940000D02*
X141760000Y-92960000D01*
%TO.N,/SW_BOOT0*%
X137615000Y-93980000D02*
X140770000Y-93980000D01*
%TO.N,USB_D+*%
X166522500Y-98310000D02*
X173752500Y-98310000D01*
X173752500Y-98310000D02*
X173792500Y-98270000D01*
%TO.N,USB_D-*%
X166522500Y-98810000D02*
X167750000Y-98810000D01*
X169110000Y-100170000D02*
X173792500Y-100170000D01*
X167750000Y-98810000D02*
X169110000Y-100170000D01*
%TO.N,+5V*%
X175010000Y-101190000D02*
X175120000Y-101080000D01*
X172120000Y-99220000D02*
X173792500Y-99220000D01*
X177495685Y-100840000D02*
X177845685Y-100490000D01*
X171810000Y-99270000D02*
X172070000Y-99270000D01*
X171800000Y-101190000D02*
X175010000Y-101190000D01*
X171800000Y-101190000D02*
X171800000Y-100840000D01*
X177845685Y-100490000D02*
X179040000Y-100490000D01*
X172070000Y-99270000D02*
X172120000Y-99220000D01*
X171800000Y-100840000D02*
X171820000Y-100820000D01*
X177030000Y-101080000D02*
X177270000Y-100840000D01*
X177270000Y-100840000D02*
X177495685Y-100840000D01*
X175120000Y-101080000D02*
X177030000Y-101080000D01*
%TO.N,unconnected-(J1-Shield-Pad6)_2*%
X182860000Y-101490000D02*
X183747500Y-102377500D01*
X184465000Y-95627500D02*
X184465000Y-102377500D01*
X183672500Y-95627500D02*
X184465000Y-95627500D01*
X181890000Y-101490000D02*
X182860000Y-101490000D01*
X183747500Y-102377500D02*
X184465000Y-102377500D01*
X182785000Y-96515000D02*
X183672500Y-95627500D01*
X181890000Y-96515000D02*
X182785000Y-96515000D01*
%TD*%
%TA.AperFunction,Conductor*%
%TO.N,GND*%
G36*
X179673039Y-101660185D02*
G01*
X179718794Y-101712989D01*
X179730000Y-101764500D01*
X179730000Y-103500000D01*
X180286000Y-103500000D01*
X180353039Y-103519685D01*
X180398794Y-103572489D01*
X180410000Y-103624000D01*
X180410000Y-105190000D01*
X183206000Y-105190000D01*
X183273039Y-105209685D01*
X183318794Y-105262489D01*
X183330000Y-105314000D01*
X183330000Y-106816000D01*
X183310315Y-106883039D01*
X183257511Y-106928794D01*
X183206000Y-106940000D01*
X182534770Y-106940000D01*
X182467731Y-106920315D01*
X182449704Y-106906220D01*
X182419192Y-106877451D01*
X182419189Y-106877449D01*
X182419187Y-106877447D01*
X182319111Y-106826561D01*
X182319110Y-106826560D01*
X182319109Y-106826560D01*
X182252078Y-106806877D01*
X182252072Y-106806876D01*
X182166000Y-106794500D01*
X182165997Y-106794500D01*
X178059500Y-106794500D01*
X177992461Y-106774815D01*
X177946706Y-106722011D01*
X177935500Y-106670500D01*
X177935500Y-103814010D01*
X177935500Y-103814000D01*
X177928518Y-103749059D01*
X177917312Y-103697548D01*
X177906354Y-103659342D01*
X177876961Y-103609085D01*
X177860000Y-103546485D01*
X177860000Y-103540000D01*
X177849451Y-103529451D01*
X177818337Y-103520315D01*
X177800310Y-103506221D01*
X177759188Y-103467448D01*
X177759187Y-103467447D01*
X177659111Y-103416561D01*
X177659110Y-103416560D01*
X177659109Y-103416560D01*
X177592078Y-103396877D01*
X177592072Y-103396876D01*
X177506000Y-103384500D01*
X177375359Y-103384500D01*
X177308320Y-103364815D01*
X177262565Y-103312011D01*
X177251360Y-103259898D01*
X177252956Y-102930980D01*
X177257608Y-101972580D01*
X177277618Y-101905640D01*
X177330644Y-101860142D01*
X177349525Y-101853407D01*
X177350274Y-101853207D01*
X177441599Y-101800480D01*
X177565260Y-101676819D01*
X177626583Y-101643334D01*
X177652941Y-101640500D01*
X179606000Y-101640500D01*
X179673039Y-101660185D01*
G37*
%TD.AperFunction*%
%TD*%
%TA.AperFunction,Conductor*%
%TO.N,+3.3V*%
G36*
X177573039Y-103709685D02*
G01*
X177618794Y-103762489D01*
X177630000Y-103814000D01*
X177630000Y-107100000D01*
X182166000Y-107100000D01*
X182233039Y-107119685D01*
X182278794Y-107172489D01*
X182290000Y-107224000D01*
X182290000Y-108396000D01*
X182270315Y-108463039D01*
X182217511Y-108508794D01*
X182166000Y-108520000D01*
X178830000Y-108520000D01*
X178830000Y-112265716D01*
X178810315Y-112332755D01*
X178757511Y-112378510D01*
X178705718Y-112389716D01*
X174563718Y-112380281D01*
X174496723Y-112360443D01*
X174451089Y-112307535D01*
X174440000Y-112256281D01*
X174440000Y-106614000D01*
X174459685Y-106546961D01*
X174512489Y-106501206D01*
X174564000Y-106490000D01*
X175620000Y-106490000D01*
X175620000Y-103814000D01*
X175639685Y-103746961D01*
X175692489Y-103701206D01*
X175744000Y-103690000D01*
X177506000Y-103690000D01*
X177573039Y-103709685D01*
G37*
%TD.AperFunction*%
%TD*%
M02*
